<svg width="43" height="43" viewBox="0 0 43 43" fill="none" xmlns="http://www.w3.org/2000/svg">
<path d="M7.98354 16.376C8.67347 14.2837 9.7935 12.3162 11.3705 10.6366C16.9706 4.63808 26.0473 4.63808 31.6474 10.6366L33.1796 12.2874H28.6726C27.0867 12.2874 25.8054 13.6599 25.8054 15.3587C25.8054 17.0575 27.0867 18.4299 28.6726 18.4299H40.0969H40.1327C41.7187 18.4299 43 17.0575 43 15.3587V3.07366C43 1.37487 41.7187 0.00239957 40.1327 0.00239957C38.5468 0.00239957 37.2655 1.37487 37.2655 3.07366V7.98767L35.6974 6.29848C27.8573 -2.09949 15.1517 -2.09949 7.31152 6.29848C5.12523 8.64031 3.54824 11.3948 2.58054 14.3413C2.05189 15.9441 2.84038 17.6909 4.32778 18.2572C5.81517 18.8234 7.45489 17.9789 7.98354 16.3856V16.376ZM2.06085 24.6972C1.61284 24.8412 1.18275 25.1003 0.833299 25.4842C0.474891 25.8681 0.232965 26.3288 0.107522 26.8279C0.0806419 26.9431 0.0537612 27.0679 0.0358408 27.1926C0.00896017 27.3558 0 27.5189 0 27.6821V39.9287C0 41.6275 1.28131 43 2.86726 43C4.45322 43 5.73453 41.6275 5.73453 39.9287V35.0243L7.31152 36.7039C15.1517 45.0923 27.8573 45.0923 35.6885 36.7039C37.8748 34.3621 39.4607 31.6076 40.4284 28.6707C40.9571 27.0679 40.1686 25.3211 38.6812 24.7548C37.1938 24.1885 35.5541 25.0331 35.0254 26.6264C34.3355 28.7187 33.2155 30.6862 31.6385 32.3658C26.0383 38.3643 16.9617 38.3643 11.3615 32.3658L11.3526 32.3562L9.82038 30.715H14.3363C15.9223 30.715 17.2036 29.3425 17.2036 27.6437C17.2036 25.9449 15.9223 24.5725 14.3363 24.5725H2.90311C2.75974 24.5725 2.61638 24.5821 2.47302 24.6012C2.32965 24.6204 2.19525 24.6492 2.06085 24.6972Z" fill="#8540A7"/>
</svg>
