<svg width="512" height="512" viewBox="0 0 512 512" fill="none" xmlns="http://www.w3.org/2000/svg">
<path d="M114.4 212.1C122.1 190.3 134.6 169.8 152.2 152.3C214.7 89.8 316 89.8 378.5 152.3L395.6 169.5H345.3C327.6 169.5 313.3 183.8 313.3 201.5C313.3 219.2 327.6 233.5 345.3 233.5H472.8H473.2C490.9 233.5 505.2 219.2 505.2 201.5V73.5C505.2 55.8 490.9 41.5 473.2 41.5C455.5 41.5 441.2 55.8 441.2 73.5V124.7L423.7 107.1C336.2 19.6 194.4 19.6 106.9 107.1C82.4998 131.5 64.8998 160.2 54.0998 190.9C48.1998 207.6 56.9998 225.8 73.5998 231.7C90.1998 237.6 108.5 228.8 114.4 212.2V212.1ZM48.2998 298.8C43.2998 300.3 38.4998 303 34.5998 307C30.5998 311 27.8998 315.8 26.4998 321C26.1998 322.2 25.8998 323.5 25.6998 324.8C25.3998 326.5 25.2998 328.2 25.2998 329.9V457.5C25.2998 475.2 39.5998 489.5 57.2998 489.5C74.9998 489.5 89.2998 475.2 89.2998 457.5V406.4L106.9 423.9C194.4 511.3 336.2 511.3 423.6 423.9C448 399.5 465.7 370.8 476.5 340.2C482.4 323.5 473.6 305.3 457 299.4C440.4 293.5 422.1 302.3 416.2 318.9C408.5 340.7 396 361.2 378.4 378.7C315.9 441.2 214.6 441.2 152.1 378.7L152 378.6L134.9 361.5H185.3C203 361.5 217.3 347.2 217.3 329.5C217.3 311.8 203 297.5 185.3 297.5H57.6998C56.0998 297.5 54.4998 297.6 52.8998 297.8C51.2998 298 49.7998 298.3 48.2998 298.8Z" fill="white"/>
<path d="M114.4 212.1C122.1 190.3 134.6 169.8 152.2 152.3C214.7 89.8 316 89.8 378.5 152.3L395.6 169.5H345.3C327.6 169.5 313.3 183.8 313.3 201.5C313.3 219.2 327.6 233.5 345.3 233.5H472.8H473.2C490.9 233.5 505.2 219.2 505.2 201.5V73.5C505.2 55.8 490.9 41.5 473.2 41.5C455.5 41.5 441.2 55.8 441.2 73.5V124.7L423.7 107.1C336.2 19.6 194.4 19.6 106.9 107.1C82.4998 131.5 64.8998 160.2 54.0998 190.9C48.1998 207.6 56.9998 225.8 73.5998 231.7C90.1998 237.6 108.5 228.8 114.4 212.2V212.1ZM48.2998 298.8C43.2998 300.3 38.4998 303 34.5998 307C30.5998 311 27.8998 315.8 26.4998 321C26.1998 322.2 25.8998 323.5 25.6998 324.8C25.3998 326.5 25.2998 328.2 25.2998 329.9V457.5C25.2998 475.2 39.5998 489.5 57.2998 489.5C74.9998 489.5 89.2998 475.2 89.2998 457.5V406.4L106.9 423.9C194.4 511.3 336.2 511.3 423.6 423.9C448 399.5 465.7 370.8 476.5 340.2C482.4 323.5 473.6 305.3 457 299.4C440.4 293.5 422.1 302.3 416.2 318.9C408.5 340.7 396 361.2 378.4 378.7C315.9 441.2 214.6 441.2 152.1 378.7L152 378.6L134.9 361.5H185.3C203 361.5 217.3 347.2 217.3 329.5C217.3 311.8 203 297.5 185.3 297.5H57.6998C56.0998 297.5 54.4998 297.6 52.8998 297.8C51.2998 298 49.7998 298.3 48.2998 298.8Z" fill="#DBDBDB"/>
</svg>
