<svg width="27" height="43" viewBox="0 0 27 43" fill="none" xmlns="http://www.w3.org/2000/svg">
<path d="M22.5703 37.0035C23.3719 37.667 24.4941 37.8182 25.4475 37.373C26.4009 36.9279 27 35.9789 27 34.9375V8.0625C27 7.0211 26.3925 6.07207 25.4475 5.62696C24.5025 5.18184 23.3803 5.32461 22.5703 5.99649L6.37031 19.434L5.4 20.2402V8.0625C5.4 6.57598 4.19344 5.375 2.7 5.375C1.20656 5.375 0 6.57598 0 8.0625V34.9375C0 36.424 1.20656 37.625 2.7 37.625C4.19344 37.625 5.4 36.424 5.4 34.9375V22.7598L6.37031 23.566L22.5703 37.0035Z" fill="white"/>
</svg>
