<svg width="50" height="50" viewBox="0 0 50 50" fill="none" xmlns="http://www.w3.org/2000/svg">
<path d="M41.6875 0.595259C46.7578 6.36143 50 15.1526 50 25.0032C50 34.8537 46.7578 43.6559 41.6875 49.4111C40.8828 50.3284 39.7031 50.1537 39.0469 49.0289C38.3906 47.904 38.5156 46.255 39.3203 45.3377C43.5547 40.5325 46.25 33.2156 46.25 25.0032C46.25 16.7908 43.5547 9.47384 39.3203 4.65779C38.5156 3.74044 38.3984 2.0914 39.0469 0.966565C39.6953 -0.158274 40.8828 -0.322086 41.6875 0.584338V0.595259ZM36.9609 8.73123C40.3359 12.5753 42.5 18.4398 42.5 25.0032C42.5 31.5666 40.3359 37.431 36.9609 41.2751C36.1563 42.1925 34.9766 42.0177 34.3203 40.8929C33.6641 39.7681 33.7891 38.119 34.5937 37.2017C37.1328 34.3186 38.75 29.9284 38.75 25.0032C38.75 20.0779 37.1328 15.6878 34.5937 12.7938C33.7891 11.8764 33.6719 10.2274 34.3203 9.10254C34.9687 7.9777 36.1563 7.81389 36.9609 8.72031V8.73123ZM32.2344 16.8672C33.9141 18.7893 35 21.716 35 25.0032C35 28.2903 33.9141 31.2171 32.2344 33.1392C31.4297 34.0565 30.25 33.8818 29.5937 32.7569C28.9375 31.6321 29.0625 29.9831 29.8672 29.0657C30.7109 28.1047 31.25 26.6413 31.25 25.0032C31.25 23.3651 30.7109 21.9017 29.8672 20.9297C29.0625 20.0124 28.9453 18.3633 29.5937 17.2385C30.2422 16.1137 31.4297 15.9499 32.2344 16.8563V16.8672ZM23.5234 0.846437C24.4219 1.41432 25 2.65928 25 4.0353V45.9711C25 47.3471 24.4219 48.592 23.5234 49.1599C22.625 49.7278 21.5703 49.4985 20.8359 48.5811L10.2969 35.4871H5C2.24219 35.4871 0 32.3529 0 28.4978V21.5085C0 17.6535 2.24219 14.5192 5 14.5192H10.2969L20.8359 1.42524C21.5703 0.507893 22.625 0.289477 23.5234 0.846437Z" fill="white"/>
</svg>
