<svg width="55" height="50" viewBox="0 0 55 50" fill="none" xmlns="http://www.w3.org/2000/svg">
<path d="M37.5033 20.7234C38.782 21.8678 39.5867 23.5309 39.5867 25.382C39.5867 27.233 38.782 28.8961 37.5033 30.0405M41.6052 16.0069C44.2001 18.2974 45.8367 21.6484 45.8367 25.3817C45.8367 29.115 44.2001 32.466 41.6052 34.7565M45.8367 11.4059C49.6726 14.8391 52.0867 19.8284 52.0867 25.3815C52.0867 30.9347 49.6726 35.924 45.8367 39.3572M8.33667 33.7151H10.42C11.5706 33.7151 12.5033 32.7824 12.5033 31.6318V19.1318C12.5033 17.9812 11.5706 17.0485 10.42 17.0485H8.33667C6.03548 17.0485 4.17 18.9139 4.17 21.2151L4.17 29.5485C4.17 31.8496 6.03548 33.7151 8.33667 33.7151ZM13.655 16.4726L26.155 10.2226C27.5402 9.53003 29.17 10.5373 29.17 12.086L29.17 38.6775C29.17 40.2263 27.5402 41.2335 26.155 40.5409L13.655 34.2909C12.9492 33.938 12.5033 33.2167 12.5033 32.4275V18.336C12.5033 17.5469 12.9492 16.8255 13.655 16.4726Z" stroke="white" stroke-width="4.16667" stroke-linecap="round"/>
</svg>
