<svg width="50" height="50" viewBox="0 0 50 50" fill="none" xmlns="http://www.w3.org/2000/svg">
<path d="M33.303 21.0848C34.4655 22.2293 35.197 23.8923 35.197 25.7434C35.197 27.5945 34.4655 29.2576 33.303 30.402M37.032 16.3683C39.391 18.6589 40.8788 22.0098 40.8788 25.7431C40.8788 29.4765 39.391 32.8275 37.032 35.118M40.8788 11.7673C44.366 15.2006 46.5606 20.1898 46.5606 25.7429C46.5606 31.2962 44.366 36.2855 40.8788 39.7187M11.5 30.1097C11.5 31.2603 11.546 33.9041 10.5 33.9041H7.5C4.71797 33.2242 3.5 32.4041 3 29.91V21.9023C3 19.584 4.5 17.584 7 17.084H9C10.046 17.084 11.5 17.4334 11.5 18.584M11.5 30.1097V18.584M11.5 30.1097C11.5 30.8989 11.5355 33.7312 12.1772 34.0841L25.5 40.5838C26.7593 41.2764 28.2409 40.2692 28.2409 38.7204V12.102C28.2409 10.5533 26.5184 9.52781 25.2591 10.2204L12 16.9041C11.3584 17.257 11.5 17.7949 11.5 18.584" stroke="white" stroke-width="4.16667" stroke-linecap="round"/>
</svg>
