<svg width="50" height="50" viewBox="0 0 50 50" fill="none" xmlns="http://www.w3.org/2000/svg">
<g clip-path="url(#clip0_751_970)">
<path d="M23 0.500006C24.2835 1.00782 25 2.7695 25 3.99997V46.5C25 47.7305 24.2835 48.9922 23 49.5C21.7165 50.0078 22.0491 49.3203 21 48.5L10.5 35.5H5.5C1.56027 35.5 0 31.4454 0 27.9981V21.7481C0 18.3008 1.56027 14.5 5.5 14.5H10.5L20 2.5C21.0491 1.67968 21.7165 0.0019564 23 0.500006ZM44.5946 18.5C46.9941 20.2187 47.2973 21.9336 47.2973 24.8731C47.2973 27.8126 46.3185 30.4297 43.9189 32.1485C42.7694 32.9688 40.8024 33.1543 39.8649 32.1485C38.9274 31.1426 39.391 28.8184 40.5405 27.9981C41.7459 27.1387 42.2768 26.3379 42.2768 24.8731C42.2768 23.4082 41.7459 22.6172 40.5405 21.7481C39.391 20.9278 38.9385 19.0058 39.8649 18C40.7912 16.9941 42.0937 16.6894 43.2432 17.5L44.5946 18.5Z" fill="white"/>
</g>
<defs>
<clipPath id="clip0_751_970">
<rect width="50" height="50" fill="white"/>
</clipPath>
</defs>
</svg>
