<svg width="50" height="50" viewBox="0 0 50 50" fill="none" xmlns="http://www.w3.org/2000/svg">
<path d="M37.5 20.3415C38.7786 21.4859 39.5833 23.149 39.5833 25.0001C39.5833 26.8511 38.7786 28.5142 37.5 29.6586M41.6667 15.6825C44.224 17.9713 45.8333 21.2975 45.8333 24.9996C45.8333 28.7017 44.224 32.0279 41.6667 34.3167M8.33333 33.3333H10.4167C11.5673 33.3333 12.5 32.4006 12.5 31.25V18.75C12.5 17.5994 11.5673 16.6667 10.4167 16.6667H8.33333C6.03214 16.6667 4.16666 18.5322 4.16666 20.8333L4.16666 29.1667C4.16666 31.4679 6.03214 33.3333 8.33333 33.3333ZM13.6516 16.0909L26.1516 9.84086C27.5368 9.14825 29.1667 10.1555 29.1667 11.7042L29.1667 38.2958C29.1667 39.8445 27.5368 40.8518 26.1516 40.1592L13.6516 33.9092C12.9458 33.5563 12.5 32.8349 12.5 32.0458V17.9542C12.5 17.1651 12.9458 16.4438 13.6516 16.0909Z" stroke="white" stroke-width="4.16667" stroke-linecap="round"/>
</svg>
