<svg width="43" height="50" viewBox="0 0 43 50" fill="none" xmlns="http://www.w3.org/2000/svg">
<path d="M37.4609 8.38478C40.8359 12.2289 43 18.0933 43 24.6567C43 31.2201 40.8359 37.0846 37.4609 40.9287C36.6562 41.846 35.4766 41.6713 34.8203 40.5464C34.1641 39.4216 34.2891 37.7726 35.0938 36.8552C37.6328 33.9721 39.25 29.582 39.25 24.6567C39.25 19.7315 37.6328 15.3413 35.0938 12.4473C34.2891 11.53 34.1719 9.88092 34.8203 8.75608C35.4688 7.63125 36.6562 7.46743 37.4609 8.37386V8.38478ZM32.7344 16.5207C34.4141 18.4428 35.5 21.3696 35.5 24.6567C35.5 27.9439 34.4141 30.8706 32.7344 32.7927C31.9297 33.71 30.75 33.5353 30.0938 32.4105C29.4375 31.2856 29.5625 29.6366 30.3672 28.7192C31.2109 27.7582 31.75 26.2948 31.75 24.6567C31.75 23.0186 31.2109 21.5552 30.3672 20.5833C29.5625 19.6659 29.4453 18.0169 30.0938 16.8921C30.7422 15.7672 31.9297 15.6034 32.7344 16.5098V16.5207ZM24.0234 0.49998C24.9219 1.06786 25.5 2.31283 25.5 3.68885V45.6246C25.5 47.0006 24.9219 48.2456 24.0234 48.8135C23.125 49.3813 22.0703 49.152 21.3359 48.2347L10.7969 35.1407H5.5C2.74219 35.1407 0.5 32.0064 0.5 28.1514V21.1621C0.5 17.307 2.74219 14.1728 5.5 14.1728H10.7969L21.3359 1.07878C22.0703 0.161436 23.125 -0.0569789 24.0234 0.49998Z" fill="white"/>
</svg>
