<svg width="448" height="449" viewBox="0 0 448 449" fill="none" xmlns="http://www.w3.org/2000/svg">
<path d="M301.1 2.78086C312.6 7.98086 320 19.3809 320 31.9809V415.981C320 428.581 312.6 439.981 301.1 445.181C289.6 450.381 276.1 448.281 266.7 439.881L131.8 319.981H64C28.7 319.981 0 291.281 0 255.981V191.981C0 156.681 28.7 127.981 64 127.981H131.8L266.7 8.08086C276.1 -0.319142 289.6 -2.31914 301.1 2.78086ZM412.6 149.481C434.1 167.081 448 193.881 448 223.981C448 254.081 434.1 280.881 412.6 298.481C402.3 306.881 387.2 305.281 378.8 294.981C370.4 284.681 372 269.581 382.3 261.181C393.1 252.381 400 238.981 400 223.981C400 208.981 393.1 195.581 382.3 186.681C372 178.281 370.5 163.181 378.8 152.881C387.1 142.581 402.3 141.081 412.6 149.381V149.481Z" fill="white"/>
</svg>
