<svg width="50" height="50" viewBox="0 0 50 50" fill="none" xmlns="http://www.w3.org/2000/svg">
<path d="M23 0.0907033C23.9983 0.598516 25 1.86023 25 3.0907V43.3407C25 44.5712 24.9983 48.0829 24 48.5907C23.0017 49.0985 22.316 49.411 21.5 48.5907L10.5 35.0907H5C1.93576 35.0907 0 31.163 0 27.7157V21.4657C0 18.0185 1.93576 14.0907 5 14.0907H10.5L20 2.0907C20.816 1.27038 22.0017 -0.407344 23 0.0907033ZM36.8924 15.8993L41.6667 21.2704L46.441 15.8993C47.2569 14.9814 48.5764 14.9814 49.3837 15.8993C50.191 16.8173 50.1997 18.3017 49.3837 19.2099L44.6094 24.581L49.3837 29.9521C50.1997 30.87 50.1997 32.3544 49.3837 33.2626C48.5677 34.1708 47.2483 34.1806 46.441 33.2626L41.6667 27.8915L36.8924 33.2626C36.0764 34.1806 34.7569 34.1806 33.9497 33.2626C33.1424 32.3446 33.1337 30.8603 33.9497 29.9521L38.724 24.581L33.9497 19.2099C33.1337 18.2919 33.1337 16.8075 33.9497 15.8993C34.7656 14.9911 36.0851 14.9814 36.8924 15.8993Z" fill="white"/>
</svg>
