<svg width="27" height="43" viewBox="0 0 27 43" fill="none" xmlns="http://www.w3.org/2000/svg">
<path d="M4.42969 37.0035C3.62813 37.667 2.50594 37.8182 1.5525 37.373C0.599062 36.9279 0 35.9789 0 34.9375V8.0625C0 7.0211 0.6075 6.07207 1.5525 5.62696C2.4975 5.18184 3.61969 5.32461 4.42969 5.99649L20.6297 19.434L21.6 20.2402V8.0625C21.6 6.57598 22.8066 5.375 24.3 5.375C25.7934 5.375 27 6.57598 27 8.0625V34.9375C27 36.424 25.7934 37.625 24.3 37.625C22.8066 37.625 21.6 36.424 21.6 34.9375V22.7598L20.6297 23.566L4.42969 37.0035Z" fill="#5E5E5E"/>
</svg>
