<svg width="50" height="50" viewBox="0 0 50 50" fill="none" xmlns="http://www.w3.org/2000/svg">
<g clip-path="url(#clip0_1228_2198)">
<path d="M39.4336 3.35938C40.6055 2.8711 41.9434 3.14454 42.8418 4.03321L49.0918 10.2832C49.6777 10.8691 50.0098 11.6602 50.0098 12.4902C50.0098 13.3203 49.6777 14.1113 49.0918 14.6973L42.8418 20.9473C41.9434 21.8457 40.6055 22.1094 39.4336 21.6211C38.2617 21.1328 37.5 20 37.5 18.7305V15.625H34.375C33.3887 15.625 32.4609 16.084 31.875 16.875L27.7344 22.3926L23.8281 17.1875L26.875 13.125C28.6426 10.7617 31.4258 9.375 34.375 9.375H37.5V6.25C37.5 4.99024 38.2617 3.84766 39.4336 3.35938ZM16.0156 27.6074L19.9219 32.8125L16.875 36.875C15.1074 39.2383 12.3242 40.625 9.375 40.625H3.125C1.39648 40.625 0 39.2285 0 37.5C0 35.7715 1.39648 34.375 3.125 34.375H9.375C10.3613 34.375 11.2891 33.916 11.875 33.125L16.0156 27.6074ZM42.832 45.9668C41.9336 46.8652 40.5957 47.1289 39.4238 46.6406C38.252 46.1523 37.4902 45.0195 37.4902 43.75V40.625H34.375C31.4258 40.625 28.6426 39.2383 26.875 36.875L11.875 16.875C11.2891 16.084 10.3613 15.625 9.375 15.625H3.125C1.39648 15.625 0 14.2285 0 12.5C0 10.7715 1.39648 9.375 3.125 9.375H9.375C12.3242 9.375 15.1074 10.7617 16.875 13.125L31.875 33.125C32.4609 33.916 33.3887 34.375 34.375 34.375H37.5V31.25C37.5 29.9902 38.2617 28.8477 39.4336 28.3594C40.6055 27.8711 41.9434 28.1445 42.8418 29.0332L49.0918 35.2832C49.6777 35.8691 50.0098 36.6602 50.0098 37.4902C50.0098 38.3203 49.6777 39.1113 49.0918 39.6973L42.8418 45.9473L42.832 45.9668Z" fill="#8540A7"/>
</g>
<defs>
<clipPath id="clip0_1228_2198">
<rect width="50" height="50" fill="white"/>
</clipPath>
</defs>
</svg>
