<svg width="60" height="60" viewBox="0 0 60 60" fill="none" xmlns="http://www.w3.org/2000/svg">
<path fill-rule="evenodd" clip-rule="evenodd" d="M20.2625 39.1163H16.8175C11.8457 39.1163 7.80935 42.9547 7.80935 47.6822C7.80935 52.4098 11.8457 56.2481 16.8175 56.2481C21.7892 56.2481 25.8263 52.4098 25.8263 47.6822C25.8263 47.6822 25.8263 29.2531 25.8263 25.7868C25.8263 25.6779 25.7592 25.578 25.6638 25.5327C25.5588 25.4782 25.4349 25.4872 25.3395 25.5507C24.2039 26.2857 21.3791 28.1097 20.5108 28.6632C20.3581 28.763 20.2625 28.9354 20.2625 29.1169C20.2625 30.7956 20.2625 39.1163 20.2625 39.1163ZM50.5984 39.1163H47.1541C42.1824 39.1163 38.1453 42.9547 38.1453 47.6822C38.1453 52.4098 42.1824 56.2481 47.1541 56.2481C52.1259 56.2481 56.1623 52.4098 56.1623 47.6822C56.1623 47.6822 56.1623 14.6258 56.1623 11.0052C56.1623 10.9236 56.1241 10.8419 56.0668 10.7784C56 10.7149 55.914 10.6876 55.8186 10.6876C53.0417 10.6876 33.9277 10.6876 31.0554 10.6876C30.855 10.6876 30.6931 10.8328 30.6931 11.0233C30.6931 11.9851 30.6931 14.6802 30.6931 15.633C30.6931 15.7237 30.7306 15.8144 30.7974 15.8779C30.8642 15.9414 30.96 15.9777 31.0554 15.9777C33.5174 15.9777 47.8603 15.9777 50.2555 15.9777C50.3509 15.9777 50.4368 16.014 50.4941 16.0684C50.5609 16.1319 50.5984 16.2136 50.5984 16.2953C50.5984 19.09 50.5984 39.1163 50.5984 39.1163ZM20.2625 47.6822C20.2625 46.43 20.2625 44.4066 20.2625 44.4066H16.8175C14.9185 44.4066 13.3732 45.8765 13.3732 47.6822C13.3732 49.488 14.9185 50.9579 16.8175 50.9579C18.7164 50.9579 20.2625 49.488 20.2625 47.6822ZM50.5984 47.6822C50.5984 46.43 50.5984 44.4066 50.5984 44.4066H47.1541C45.2552 44.4066 43.7091 45.8765 43.7091 47.6822C43.7091 49.488 45.2552 50.9579 47.1541 50.9579C49.0531 50.9579 50.5984 49.488 50.5984 47.6822ZM15.9109 10.6876C15.825 10.6876 15.749 10.6513 15.6917 10.5969C15.6249 10.5425 15.5963 10.4608 15.5963 10.3791C15.5963 9.27206 15.5963 5.40654 15.5963 4.29951C15.5963 4.21785 15.5581 4.14518 15.5009 4.09074C15.4436 4.0363 15.3676 4 15.2817 4C14.2988 4 11.3212 4 10.3478 4C10.262 4 10.1762 4.0363 10.119 4.09074C10.0617 4.14518 10.0332 4.21785 10.0332 4.29951C10.0332 5.40654 10.0332 9.27206 10.0332 10.3791C10.0332 10.4608 9.99506 10.5425 9.9378 10.5969C9.88055 10.6513 9.79407 10.6876 9.70818 10.6876C8.54398 10.6876 4.47881 10.6876 3.31461 10.6876C3.22873 10.6876 3.15268 10.7149 3.09543 10.7693C3.02863 10.8238 3 10.9053 3 10.987C3 11.9125 3 14.7437 3 15.6783C3 15.76 3.02863 15.8325 3.09543 15.8869C3.15268 15.9414 3.22873 15.9777 3.31461 15.9777C4.47881 15.9777 8.54398 15.9777 9.70818 15.9777C9.79407 15.9777 9.88055 16.0049 9.9378 16.0684C9.99506 16.1229 10.0332 16.1955 10.0332 16.2772V22.3568C10.0332 22.4384 10.0617 22.5201 10.119 22.5746C10.1762 22.629 10.262 22.6563 10.3478 22.6563C11.3212 22.6563 14.2988 22.6563 15.2817 22.6563C15.3676 22.6563 15.4436 22.629 15.5009 22.5746C15.5581 22.5201 15.5963 22.4384 15.5963 22.3568C15.5963 21.2497 15.5963 17.3842 15.5963 16.2772C15.5963 16.1955 15.6249 16.1229 15.6917 16.0684C15.749 16.0049 15.825 15.9777 15.9109 15.9777C17.0751 15.9777 21.1403 15.9777 22.3045 15.9777C22.3904 15.9777 22.4673 15.9414 22.5341 15.8869C22.5914 15.8325 22.6198 15.76 22.6198 15.6783C22.6198 14.7437 22.6198 11.9125 22.6198 10.987C22.6198 10.9053 22.5914 10.8238 22.5341 10.7693C22.4673 10.7149 22.3904 10.6876 22.3045 10.6876C21.1403 10.6876 17.0751 10.6876 15.9109 10.6876Z" fill="white"/>
</svg>
