<svg width="150" height="150" viewBox="0 0 150 150" fill="none" xmlns="http://www.w3.org/2000/svg">
<rect width="150" height="150" fill="black" fill-opacity="0.4"/>
<path d="M60.4414 76.3421L62.4178 77.0009L60.4414 76.3421ZM62.0022 71.6597L60.0258 71.0009L60.0258 71.0009L62.0022 71.6597ZM63.6127 69.0538L65.0859 70.527L65.0859 70.527L63.6127 69.0538ZM79.1666 53.5L77.6934 52.0268L77.6934 52.0268L79.1666 53.5ZM87.4999 61.8333L88.973 63.3065V63.3065L87.4999 61.8333ZM71.9461 77.3871L70.4729 75.914L70.4729 75.914L71.9461 77.3871ZM69.3402 78.9977L69.999 80.9741H69.999L69.3402 78.9977ZM64.6578 80.5585L65.3166 82.5349H65.3166L64.6578 80.5585ZM71.0918 78.1845L69.8371 76.5213L69.8371 76.5213L71.0918 78.1845ZM70.4354 78.5902L69.5089 76.7242L70.4354 78.5902ZM89.5074 55.8166L87.6407 56.7416V56.7416L89.5074 55.8166ZM89.5074 59.5167L87.6407 58.5917V58.5917L89.5074 59.5167ZM81.4832 51.4925L82.4082 53.3592L82.4082 53.3592L81.4832 51.4925ZM85.1833 51.4925L84.2583 53.3592V53.3592L85.1833 51.4925ZM62.4097 70.5645L64.2757 71.4909L64.2757 71.4909L62.4097 70.5645ZM62.8154 69.9081L61.1522 68.6534L61.1522 68.6534L62.8154 69.9081ZM59.665 80.0724L57.7027 80.7721L59.665 80.0724ZM60.9275 81.3349L60.2278 83.2972H60.2278L60.9275 81.3349ZM78.5564 54.1102C77.7428 53.2967 76.4237 53.2967 75.6101 54.1102C74.7965 54.9238 74.7965 56.2429 75.6101 57.0565L78.5564 54.1102ZM83.9434 65.3899C84.757 66.2034 86.0761 66.2034 86.8897 65.3899C87.7033 64.5763 87.7033 63.2572 86.8897 62.4436L83.9434 65.3899ZM62.4178 77.0009L63.9786 72.3185L60.0258 71.0009L58.465 75.6833L62.4178 77.0009ZM65.0859 70.527L80.6397 54.9731L77.6934 52.0268L62.1396 67.5807L65.0859 70.527ZM86.0268 60.3602L70.4729 75.914L73.4192 78.8603L88.973 63.3065L86.0268 60.3602ZM68.6814 77.0212L63.999 78.582L65.3166 82.5349L69.999 80.9741L68.6814 77.0212ZM70.4729 75.914C70.0186 76.3684 69.9265 76.4539 69.8371 76.5213L72.3465 79.8476C72.7205 79.5655 73.0435 79.236 73.4192 78.8603L70.4729 75.914ZM69.999 80.9741C70.5031 80.8061 70.9422 80.6645 71.3619 80.4562L69.5089 76.7242C69.4087 76.774 69.291 76.818 68.6814 77.0212L69.999 80.9741ZM69.8371 76.5213C69.7343 76.599 69.6244 76.6669 69.5089 76.7242L71.3619 80.4562C71.7082 80.2842 72.0378 80.0805 72.3465 79.8476L69.8371 76.5213ZM86.0268 54.9731C87.2816 56.228 87.5272 56.5125 87.6407 56.7416L91.3741 54.8916C90.8804 53.8953 89.99 53.0438 88.973 52.0268L86.0268 54.9731ZM88.973 63.3065C89.99 62.2895 90.8804 61.438 91.3741 60.4417L87.6407 58.5917C87.5272 58.8208 87.2816 59.1053 86.0268 60.3602L88.973 63.3065ZM87.6407 56.7416C87.9296 57.3245 87.9296 58.0088 87.6407 58.5917L91.3741 60.4417C92.2406 58.6931 92.2406 56.6402 91.3741 54.8915L87.6407 56.7416ZM80.6397 54.9731C81.8946 53.7182 82.1791 53.4727 82.4082 53.3592L80.5581 49.6258C79.5619 50.1194 78.7104 51.0099 77.6934 52.0268L80.6397 54.9731ZM88.973 52.0268C87.956 51.0098 87.1046 50.1194 86.1083 49.6258L84.2583 53.3592C84.4874 53.4727 84.7719 53.7182 86.0268 54.9731L88.973 52.0268ZM82.4082 53.3592C82.9911 53.0703 83.6754 53.0703 84.2583 53.3592L86.1083 49.6258C84.3597 48.7592 82.3067 48.7592 80.5581 49.6258L82.4082 53.3592ZM63.9786 72.3185C64.1818 71.7089 64.2259 71.5912 64.2757 71.4909L60.5437 69.638C60.3353 70.0577 60.1938 70.4968 60.0258 71.0009L63.9786 72.3185ZM62.1396 67.5807C61.7639 67.9564 61.4344 68.2793 61.1522 68.6534L64.4785 71.1627C64.546 71.0734 64.6315 70.9813 65.0859 70.527L62.1396 67.5807ZM64.2757 71.4909C64.333 71.3755 64.4009 71.2656 64.4785 71.1627L61.1522 68.6534C60.9194 68.9621 60.7157 69.2917 60.5437 69.638L64.2757 71.4909ZM58.465 75.6833C58.1389 76.6617 57.8465 77.5321 57.6801 78.2402C57.521 78.9174 57.3707 79.841 57.7027 80.7721L61.6273 79.3726C61.7179 79.6268 61.6165 79.7031 61.7363 79.1933C61.8489 78.7144 62.0654 78.0581 62.4178 77.0009L58.465 75.6833ZM63.999 78.582C62.9418 78.9344 62.2854 79.151 61.8065 79.2636C61.2968 79.3833 61.373 79.282 61.6273 79.3726L60.2278 83.2972C61.1588 83.6292 62.0825 83.4789 62.7597 83.3197C63.4678 83.1533 64.3382 82.861 65.3166 82.5349L63.999 78.582ZM57.7027 80.7721C58.1227 81.9501 59.0498 82.8771 60.2278 83.2972L61.6273 79.3726L61.6273 79.3726L57.7027 80.7721ZM75.6101 57.0565L83.9434 65.3899L86.8897 62.4436L78.5564 54.1102L75.6101 57.0565Z" fill="white"/>
<path d="M32.42 99.8C32.42 98.976 32.604 98.24 32.972 97.592C33.348 96.936 33.856 96.428 34.496 96.068C35.144 95.7 35.868 95.516 36.668 95.516C37.604 95.516 38.424 95.756 39.128 96.236C39.832 96.716 40.324 97.38 40.604 98.228H38.672C38.48 97.828 38.208 97.528 37.856 97.328C37.512 97.128 37.112 97.028 36.656 97.028C36.168 97.028 35.732 97.144 35.348 97.376C34.972 97.6 34.676 97.92 34.46 98.336C34.252 98.752 34.148 99.24 34.148 99.8C34.148 100.352 34.252 100.84 34.46 101.264C34.676 101.68 34.972 102.004 35.348 102.236C35.732 102.46 36.168 102.572 36.656 102.572C37.112 102.572 37.512 102.472 37.856 102.272C38.208 102.064 38.48 101.76 38.672 101.36H40.604C40.324 102.216 39.832 102.884 39.128 103.364C38.432 103.836 37.612 104.072 36.668 104.072C35.868 104.072 35.144 103.892 34.496 103.532C33.856 103.164 33.348 102.656 32.972 102.008C32.604 101.36 32.42 100.624 32.42 99.8ZM45.7829 97.256C46.2869 97.256 46.7349 97.368 47.1269 97.592C47.5189 97.808 47.8229 98.132 48.0389 98.564C48.2629 98.988 48.3749 99.5 48.3749 100.1V104H46.6949V100.328C46.6949 99.8 46.5629 99.396 46.2989 99.116C46.0349 98.828 45.6749 98.684 45.2189 98.684C44.7549 98.684 44.3869 98.828 44.1149 99.116C43.8509 99.396 43.7189 99.8 43.7189 100.328V104H42.0389V95.12H43.7189V98.18C43.9349 97.892 44.2229 97.668 44.5829 97.508C44.9429 97.34 45.3429 97.256 45.7829 97.256ZM52.9245 104.108C52.2845 104.108 51.7085 103.968 51.1965 103.688C50.6845 103.4 50.2805 102.996 49.9845 102.476C49.6965 101.956 49.5525 101.356 49.5525 100.676C49.5525 99.996 49.7005 99.396 49.9965 98.876C50.3005 98.356 50.7125 97.956 51.2325 97.676C51.7525 97.388 52.3325 97.244 52.9725 97.244C53.6125 97.244 54.1925 97.388 54.7125 97.676C55.2325 97.956 55.6405 98.356 55.9365 98.876C56.2405 99.396 56.3925 99.996 56.3925 100.676C56.3925 101.356 56.2365 101.956 55.9245 102.476C55.6205 102.996 55.2045 103.4 54.6765 103.688C54.1565 103.968 53.5725 104.108 52.9245 104.108ZM52.9245 102.644C53.2285 102.644 53.5125 102.572 53.7765 102.428C54.0485 102.276 54.2645 102.052 54.4245 101.756C54.5845 101.46 54.6645 101.1 54.6645 100.676C54.6645 100.044 54.4965 99.56 54.1605 99.224C53.8325 98.88 53.4285 98.708 52.9485 98.708C52.4685 98.708 52.0645 98.88 51.7365 99.224C51.4165 99.56 51.2565 100.044 51.2565 100.676C51.2565 101.308 51.4125 101.796 51.7245 102.14C52.0445 102.476 52.4445 102.644 52.9245 102.644ZM60.5769 104.108C59.9369 104.108 59.3609 103.968 58.8489 103.688C58.3369 103.4 57.9329 102.996 57.6369 102.476C57.3489 101.956 57.2049 101.356 57.2049 100.676C57.2049 99.996 57.3529 99.396 57.6489 98.876C57.9529 98.356 58.3649 97.956 58.8849 97.676C59.4049 97.388 59.9849 97.244 60.6249 97.244C61.2649 97.244 61.8449 97.388 62.3649 97.676C62.8849 97.956 63.2929 98.356 63.5889 98.876C63.8929 99.396 64.0449 99.996 64.0449 100.676C64.0449 101.356 63.8889 101.956 63.5769 102.476C63.2729 102.996 62.8569 103.4 62.3289 103.688C61.8089 103.968 61.2249 104.108 60.5769 104.108ZM60.5769 102.644C60.8809 102.644 61.1649 102.572 61.4289 102.428C61.7009 102.276 61.9169 102.052 62.0769 101.756C62.2369 101.46 62.3169 101.1 62.3169 100.676C62.3169 100.044 62.1489 99.56 61.8129 99.224C61.4849 98.88 61.0809 98.708 60.6009 98.708C60.1209 98.708 59.7169 98.88 59.3889 99.224C59.0689 99.56 58.9089 100.044 58.9089 100.676C58.9089 101.308 59.0649 101.796 59.3769 102.14C59.6969 102.476 60.0969 102.644 60.5769 102.644ZM67.8212 104.108C67.2772 104.108 66.7892 104.012 66.3572 103.82C65.9252 103.62 65.5812 103.352 65.3252 103.016C65.0772 102.68 64.9412 102.308 64.9172 101.9H66.6092C66.6412 102.156 66.7652 102.368 66.9812 102.536C67.2052 102.704 67.4812 102.788 67.8092 102.788C68.1292 102.788 68.3772 102.724 68.5532 102.596C68.7372 102.468 68.8292 102.304 68.8292 102.104C68.8292 101.888 68.7172 101.728 68.4932 101.624C68.2772 101.512 67.9292 101.392 67.4492 101.264C66.9532 101.144 66.5452 101.02 66.2252 100.892C65.9132 100.764 65.6412 100.568 65.4092 100.304C65.1852 100.04 65.0732 99.684 65.0732 99.236C65.0732 98.868 65.1772 98.532 65.3852 98.228C65.6012 97.924 65.9052 97.684 66.2972 97.508C66.6972 97.332 67.1652 97.244 67.7012 97.244C68.4932 97.244 69.1252 97.444 69.5972 97.844C70.0692 98.236 70.3292 98.768 70.3772 99.44H68.7692C68.7452 99.176 68.6332 98.968 68.4332 98.816C68.2412 98.656 67.9812 98.576 67.6532 98.576C67.3492 98.576 67.1132 98.632 66.9452 98.744C66.7852 98.856 66.7052 99.012 66.7052 99.212C66.7052 99.436 66.8172 99.608 67.0412 99.728C67.2652 99.84 67.6132 99.956 68.0852 100.076C68.5652 100.196 68.9612 100.32 69.2732 100.448C69.5852 100.576 69.8532 100.776 70.0772 101.048C70.3092 101.312 70.4292 101.664 70.4372 102.104C70.4372 102.488 70.3292 102.832 70.1132 103.136C69.9052 103.44 69.6012 103.68 69.2012 103.856C68.8092 104.024 68.3492 104.108 67.8212 104.108ZM77.9963 100.532C77.9963 100.772 77.9803 100.988 77.9483 101.18H73.0883C73.1283 101.66 73.2963 102.036 73.5923 102.308C73.8883 102.58 74.2523 102.716 74.6843 102.716C75.3083 102.716 75.7523 102.448 76.0163 101.912H77.8283C77.6363 102.552 77.2683 103.08 76.7243 103.496C76.1803 103.904 75.5123 104.108 74.7203 104.108C74.0803 104.108 73.5043 103.968 72.9923 103.688C72.4883 103.4 72.0923 102.996 71.8043 102.476C71.5243 101.956 71.3843 101.356 71.3843 100.676C71.3843 99.988 71.5243 99.384 71.8043 98.864C72.0843 98.344 72.4763 97.944 72.9803 97.664C73.4843 97.384 74.0643 97.244 74.7203 97.244C75.3523 97.244 75.9163 97.38 76.4123 97.652C76.9163 97.924 77.3043 98.312 77.5763 98.816C77.8563 99.312 77.9963 99.884 77.9963 100.532ZM76.2563 100.052C76.2483 99.62 76.0923 99.276 75.7883 99.02C75.4843 98.756 75.1123 98.624 74.6723 98.624C74.2563 98.624 73.9043 98.752 73.6163 99.008C73.3363 99.256 73.1643 99.604 73.1003 100.052H76.2563ZM83.7619 98.312C83.9779 98.008 84.2739 97.756 84.6499 97.556C85.0339 97.348 85.4699 97.244 85.9579 97.244C86.5259 97.244 87.0379 97.384 87.4939 97.664C87.9579 97.944 88.3219 98.344 88.5859 98.864C88.8579 99.376 88.9939 99.972 88.9939 100.652C88.9939 101.332 88.8579 101.936 88.5859 102.464C88.3219 102.984 87.9579 103.388 87.4939 103.676C87.0379 103.964 86.5259 104.108 85.9579 104.108C85.4699 104.108 85.0379 104.008 84.6619 103.808C84.2939 103.608 83.9939 103.356 83.7619 103.052V107.168H82.0819V97.352H83.7619V98.312ZM87.2779 100.652C87.2779 100.252 87.1939 99.908 87.0259 99.62C86.8659 99.324 86.6499 99.1 86.3779 98.948C86.1139 98.796 85.8259 98.72 85.5139 98.72C85.2099 98.72 84.9219 98.8 84.6499 98.96C84.3859 99.112 84.1699 99.336 84.0019 99.632C83.8419 99.928 83.7619 100.276 83.7619 100.676C83.7619 101.076 83.8419 101.424 84.0019 101.72C84.1699 102.016 84.3859 102.244 84.6499 102.404C84.9219 102.556 85.2099 102.632 85.5139 102.632C85.8259 102.632 86.1139 102.552 86.3779 102.392C86.6499 102.232 86.8659 102.004 87.0259 101.708C87.1939 101.412 87.2779 101.06 87.2779 100.652ZM93.9587 97.256C94.4627 97.256 94.9107 97.368 95.3027 97.592C95.6947 97.808 95.9987 98.132 96.2147 98.564C96.4387 98.988 96.5507 99.5 96.5507 100.1V104H94.8707V100.328C94.8707 99.8 94.7387 99.396 94.4747 99.116C94.2107 98.828 93.8507 98.684 93.3947 98.684C92.9307 98.684 92.5627 98.828 92.2907 99.116C92.0267 99.396 91.8947 99.8 91.8947 100.328V104H90.2147V95.12H91.8947V98.18C92.1107 97.892 92.3987 97.668 92.7587 97.508C93.1187 97.34 93.5187 97.256 93.9587 97.256ZM101.1 104.108C100.46 104.108 99.8843 103.968 99.3723 103.688C98.8603 103.4 98.4563 102.996 98.1603 102.476C97.8723 101.956 97.7283 101.356 97.7283 100.676C97.7283 99.996 97.8763 99.396 98.1723 98.876C98.4763 98.356 98.8883 97.956 99.4083 97.676C99.9283 97.388 100.508 97.244 101.148 97.244C101.788 97.244 102.368 97.388 102.888 97.676C103.408 97.956 103.816 98.356 104.112 98.876C104.416 99.396 104.568 99.996 104.568 100.676C104.568 101.356 104.412 101.956 104.1 102.476C103.796 102.996 103.38 103.4 102.852 103.688C102.332 103.968 101.748 104.108 101.1 104.108ZM101.1 102.644C101.404 102.644 101.688 102.572 101.952 102.428C102.224 102.276 102.44 102.052 102.6 101.756C102.76 101.46 102.84 101.1 102.84 100.676C102.84 100.044 102.672 99.56 102.336 99.224C102.008 98.88 101.604 98.708 101.124 98.708C100.644 98.708 100.24 98.88 99.9123 99.224C99.5923 99.56 99.4323 100.044 99.4323 100.676C99.4323 101.308 99.5883 101.796 99.9003 102.14C100.22 102.476 100.62 102.644 101.1 102.644ZM107.757 98.732V101.948C107.757 102.172 107.809 102.336 107.913 102.44C108.025 102.536 108.209 102.584 108.465 102.584H109.245V104H108.189C106.773 104 106.065 103.312 106.065 101.936V98.732H105.273V97.352H106.065V95.708H107.757V97.352H109.245V98.732H107.757ZM113.405 104.108C112.765 104.108 112.189 103.968 111.677 103.688C111.165 103.4 110.761 102.996 110.465 102.476C110.177 101.956 110.033 101.356 110.033 100.676C110.033 99.996 110.181 99.396 110.477 98.876C110.781 98.356 111.193 97.956 111.713 97.676C112.233 97.388 112.813 97.244 113.453 97.244C114.093 97.244 114.673 97.388 115.193 97.676C115.713 97.956 116.121 98.356 116.417 98.876C116.721 99.396 116.873 99.996 116.873 100.676C116.873 101.356 116.717 101.956 116.405 102.476C116.101 102.996 115.685 103.4 115.157 103.688C114.637 103.968 114.053 104.108 113.405 104.108ZM113.405 102.644C113.709 102.644 113.993 102.572 114.257 102.428C114.529 102.276 114.745 102.052 114.905 101.756C115.065 101.46 115.145 101.1 115.145 100.676C115.145 100.044 114.977 99.56 114.641 99.224C114.313 98.88 113.909 98.708 113.429 98.708C112.949 98.708 112.545 98.88 112.217 99.224C111.897 99.56 111.737 100.044 111.737 100.676C111.737 101.308 111.893 101.796 112.205 102.14C112.525 102.476 112.925 102.644 113.405 102.644Z" fill="white"/>
</svg>
