<svg width="19" height="26" viewBox="0 0 19 26" fill="none" xmlns="http://www.w3.org/2000/svg">
<path d="M2.04844 7.64768C1.42995 7.01292 1.42995 5.98206 2.04844 5.34729C2.66693 4.71252 3.67136 4.71252 4.28985 5.34729L9.5 10.6996L14.7151 5.35237C15.3336 4.7176 16.338 4.7176 16.9565 5.35237C17.575 5.98713 17.575 7.01799 16.9565 7.65276L11.7414 13L16.9516 18.3524C17.5701 18.9871 17.5701 20.018 16.9516 20.6528C16.3331 21.2875 15.3286 21.2875 14.7102 20.6528L9.5 15.3004L4.2849 20.6477C3.66641 21.2824 2.66198 21.2824 2.04349 20.6477C1.425 20.0129 1.425 18.9821 2.04349 18.3473L7.2586 13L2.04844 7.64768Z" fill="#5E5E5E"/>
</svg>
