<svg width="384" height="512" viewBox="0 0 384 512" fill="none" xmlns="http://www.w3.org/2000/svg">
<g clip-path="url(#clip0_731_959)">
<path d="M384 64C384 28.7 355.3 0 320 0H64C28.7 0 0 28.7 0 64V448C0 483.3 28.7 512 64 512H320C355.3 512 384 483.3 384 448V64ZM128 192C128 175.026 134.743 158.747 146.745 146.745C158.747 134.743 175.026 128 192 128C208.974 128 225.253 134.743 237.255 146.745C249.257 158.747 256 175.026 256 192C256 208.974 249.257 225.253 237.255 237.255C225.253 249.257 208.974 256 192 256C175.026 256 158.747 249.257 146.745 237.255C134.743 225.253 128 208.974 128 192ZM80 356.6C80 318.7 110.7 288 148.6 288H235.5C273.4 288 304.1 318.7 304.1 356.6C304.1 371.7 291.8 384 276.7 384H107.4C92.3 384 80 371.7 80 356.6Z" fill="white"/>
</g>
<defs>
<clipPath id="clip0_731_959">
<rect width="384" height="512" fill="white"/>
</clipPath>
</defs>
</svg>
