<svg width="44" height="44" viewBox="0 0 44 44" fill="none" xmlns="http://www.w3.org/2000/svg">
<path d="M12.8133 3.22143L11.9195 6.28571H5.5C2.46641 6.28571 0 9.10446 0 12.5714V37.7143C0 41.1812 2.46641 44 5.5 44H38.5C41.5336 44 44 41.1812 44 37.7143V12.5714C44 9.10446 41.5336 6.28571 38.5 6.28571H32.0805L31.1867 3.22143C30.6281 1.29643 29.0555 0 27.2766 0H16.7234C14.9445 0 13.3719 1.29643 12.8133 3.22143ZM22 15.7143C24.188 15.7143 26.2865 16.7076 27.8336 18.4758C29.3808 20.244 30.25 22.6422 30.25 25.1429C30.25 27.6435 29.3808 30.0417 27.8336 31.8099C26.2865 33.5781 24.188 34.5714 22 34.5714C19.812 34.5714 17.7135 33.5781 16.1664 31.8099C14.6192 30.0417 13.75 27.6435 13.75 25.1429C13.75 22.6422 14.6192 20.244 16.1664 18.4758C17.7135 16.7076 19.812 15.7143 22 15.7143Z" fill="white"/>
</svg>
