<svg width="38" height="40" viewBox="0 0 38 40" fill="none" xmlns="http://www.w3.org/2000/svg">
<path d="M4.82428 3.43018H3.51514C3.18785 3.43018 2.92725 3.69078 2.92725 4.01807C2.92725 4.34535 3.18785 4.60596 3.51514 4.60596H4.82428C5.15157 4.60596 5.41217 4.34536 5.41217 4.01807C5.41217 3.69078 5.14543 3.43018 4.82428 3.43018Z" fill="white"/>
<path d="M8.4 3.43018H7.09085C6.76357 3.43018 6.50296 3.69078 6.50296 4.01807C6.50296 4.34535 6.76356 4.60596 7.09085 4.60596H8.4C8.72728 4.60596 8.98789 4.34536 8.98789 4.01807C8.98789 3.69078 8.72729 3.43018 8.4 3.43018Z" fill="white"/>
<path d="M11.9821 3.43018H10.673C10.3457 3.43018 10.0851 3.69078 10.0851 4.01807C10.0851 4.34535 10.3457 4.60596 10.673 4.60596H11.9821C12.3094 4.60596 12.57 4.34536 12.57 4.01807C12.57 3.69078 12.3033 3.43018 11.9821 3.43018Z" fill="white"/>
<path d="M34.3814 3.43018H23.9029C23.5756 3.43018 23.315 3.69078 23.315 4.01807C23.315 4.34535 23.5756 4.60596 23.9029 4.60596H34.3814C34.7087 4.60596 34.9693 4.34536 34.9693 4.01807C34.9693 3.69078 34.7029 3.43018 34.3814 3.43018Z" fill="white"/>
<path d="M4.00643 10.3514H13.77C14.0973 10.3514 14.3579 10.0908 14.3579 9.76349C14.3579 9.43621 14.0973 9.1756 13.77 9.1756H4.00643C3.67914 9.1756 3.41853 9.4362 3.41853 9.76349C3.41853 10.0846 3.67913 10.3514 4.00643 10.3514Z" fill="white"/>
<path d="M4.00643 12.7578H9.74586C10.0731 12.7578 10.3337 12.4972 10.3337 12.1699C10.3337 11.8426 10.0731 11.582 9.74586 11.582H4.00643C3.67914 11.582 3.41853 11.8426 3.41853 12.1699C3.41853 12.4972 3.67913 12.7578 4.00643 12.7578Z" fill="white"/>
<path d="M30.7821 27.6785C30.1094 27.0058 29.079 26.9088 28.2914 27.3755L27.2489 26.3331C29.8611 22.436 29.3823 17.1267 26.0307 13.776C22.1518 9.89703 15.8429 9.89703 11.9643 13.776C8.08535 17.6549 8.08535 23.9638 11.9643 27.8424C13.8856 29.7637 16.4431 30.7453 19.0129 30.7453C20.9341 30.7453 22.8614 30.1878 24.5221 29.0665L25.5584 30.1027C25.3706 30.418 25.2673 30.7693 25.2673 31.1452C25.2673 31.6907 25.4794 32.2057 25.8672 32.5877L31.8734 38.5938C32.2735 38.9939 32.7947 39.1878 33.3159 39.1878C33.8371 39.1878 34.3583 38.9878 34.7584 38.5938L36.7827 36.5695C37.5764 35.7757 37.5764 34.4786 36.7827 33.6847L30.7821 27.6785ZM26.3458 29.224L25.4791 28.3574C25.6669 28.1939 25.855 28.024 26.0366 27.8423C26.2185 27.6604 26.3882 27.4788 26.5458 27.2849L27.4125 28.1515L26.3458 29.224ZM12.8001 27.0117C9.38185 23.5935 9.37592 18.0238 12.8001 14.606C14.5091 12.897 16.7576 12.0423 19.0063 12.0423C21.2549 12.0423 23.4971 12.897 25.2125 14.606C28.2792 17.6727 28.6307 22.5938 26.0306 26.0545C25.7881 26.388 25.5094 26.7091 25.2125 27.006C24.9095 27.309 24.5883 27.5819 24.2549 27.8302C20.782 30.4303 15.8671 30.0729 12.7999 27.0121L12.8001 27.0117ZM35.9579 35.7331L33.9336 37.7574C33.5944 38.0967 33.0489 38.0967 32.7093 37.7574L26.7031 31.7513C26.5396 31.5878 26.4487 31.3696 26.4487 31.1391C26.4487 30.9089 26.5396 30.6907 26.7031 30.5269L28.7274 28.5026C28.8971 28.333 29.1153 28.2482 29.3396 28.2482C29.5639 28.2482 29.7821 28.333 29.9518 28.5026L35.9579 34.5088C36.2913 34.8484 36.2914 35.4 35.9579 35.7331Z" fill="white"/>
<path d="M22.9029 15.9029L16.6908 17.3696C16.424 17.4302 16.2363 17.6665 16.2363 17.9394V22.3454C15.9877 22.2363 15.7151 22.1696 15.4241 22.1696C14.327 22.1696 13.4361 23.0605 13.4361 24.1576C13.4361 25.2547 14.327 26.1456 15.4241 26.1456C16.5211 26.1456 17.4121 25.2547 17.4121 24.1576V20.7879L22.4483 19.6001V21.0061C22.1997 20.897 21.9271 20.8303 21.6361 20.8303C20.5391 20.8303 19.6481 21.7213 19.6481 22.8183C19.6481 23.9154 20.5391 24.8063 21.6361 24.8063C22.7332 24.8063 23.6241 23.9154 23.6241 22.8183C23.6241 22.7879 23.618 22.7639 23.618 22.7335C23.618 22.7215 23.6241 22.7092 23.6241 22.6911V16.4726C23.6241 16.2907 23.5393 16.121 23.3998 16.012C23.2606 15.9029 23.0786 15.8604 22.9029 15.9029ZM15.4243 24.9636C14.9759 24.9636 14.6121 24.6 14.6121 24.1514C14.6121 23.703 14.9756 23.3391 15.4243 23.3391C15.8727 23.3391 16.2365 23.7027 16.2365 24.1514C16.2365 24.5997 15.8729 24.9636 15.4243 24.9636ZM17.4123 19.5816V18.4058L22.4486 17.218V18.3938L17.4123 19.5816ZM21.6366 23.624C21.1883 23.624 20.8244 23.2604 20.8244 22.8118C20.8244 22.3634 21.188 21.9996 21.6366 21.9996C22.085 21.9996 22.4489 22.3631 22.4489 22.8118C22.4486 23.2604 22.085 23.624 21.6366 23.624Z" fill="white"/>
<path d="M33.9936 0.812195H4.00571C1.98756 0.812195 0.351135 2.45448 0.351135 4.47291V6.62441V6.63055V6.63669V31.9095C0.351135 33.9277 1.99342 35.5703 4.00571 35.5703H25.7757C26.103 35.5703 26.3636 35.3097 26.3636 34.9824C26.3636 34.6551 26.103 34.3945 25.7757 34.3945L4.00571 34.3942C2.63599 34.3942 1.52692 33.279 1.52692 31.9093V7.21855H36.4784V31.4671C36.4784 31.7944 36.7389 32.055 37.0662 32.055C37.3935 32.055 37.6541 31.7944 37.6541 31.4671V4.47284C37.6541 2.45469 36.0116 0.812407 33.9934 0.812407L33.9936 0.812195ZM1.52071 6.04241V4.47262C1.52071 3.10291 2.63592 1.98769 3.99949 1.98769H33.9874C35.3571 1.98769 36.4723 3.10291 36.4723 4.47262V6.04241H1.52071Z" fill="white"/>
</svg>
