<svg width="512" height="512" viewBox="0 0 512 512" fill="none" xmlns="http://www.w3.org/2000/svg">
<g clip-path="url(#clip0_731_951)">
<path d="M499.1 6.29999C507.2 12.3 512 21.9 512 32V104V368C512 412.2 469 448 416 448C363 448 320 412.2 320 368C320 323.8 363 288 416 288C427.2 288 438 289.6 448 292.6V147L192 223.8V432C192 476.2 149 512 96 512C43 512 0 476.2 0 432C0 387.8 43 352 96 352C107.2 352 118 353.6 128 356.6V200V128C128 113.9 137.3 101.4 150.8 97.3L470.8 1.29999C480.5 -1.60001 491 0.199988 499.1 6.29999Z" fill="white"/>
</g>
<defs>
<clipPath id="clip0_731_951">
<rect width="512" height="512" fill="white"/>
</clipPath>
</defs>
</svg>
