<svg width="512" height="512" viewBox="0 0 512 512" fill="none" xmlns="http://www.w3.org/2000/svg">
<g clip-path="url(#clip0_731_955)">
<path d="M0 256C0 188.105 26.9714 122.99 74.9807 74.9807C122.99 26.9714 188.105 0 256 0C323.895 0 389.01 26.9714 437.019 74.9807C485.029 122.99 512 188.105 512 256C512 323.895 485.029 389.01 437.019 437.019C389.01 485.029 323.895 512 256 512C188.105 512 122.99 485.029 74.9807 437.019C26.9714 389.01 0 323.895 0 256ZM256 160C281.461 160 305.879 170.114 323.882 188.118C341.886 206.121 352 230.539 352 256C352 281.461 341.886 305.879 323.882 323.882C305.879 341.886 281.461 352 256 352C230.539 352 206.121 341.886 188.118 323.882C170.114 305.879 160 281.461 160 256C160 230.539 170.114 206.121 188.118 188.118C206.121 170.114 230.539 160 256 160ZM256 384C289.948 384 322.505 370.514 346.51 346.51C370.514 322.505 384 289.948 384 256C384 222.052 370.514 189.495 346.51 165.49C322.505 141.486 289.948 128 256 128C222.052 128 189.495 141.486 165.49 165.49C141.486 189.495 128 222.052 128 256C128 289.948 141.486 322.505 165.49 346.51C189.495 370.514 222.052 384 256 384ZM256 288C264.487 288 272.626 284.629 278.627 278.627C284.629 272.626 288 264.487 288 256C288 247.513 284.629 239.374 278.627 233.373C272.626 227.371 264.487 224 256 224C247.513 224 239.374 227.371 233.373 233.373C227.371 239.374 224 247.513 224 256C224 264.487 227.371 272.626 233.373 278.627C239.374 284.629 247.513 288 256 288Z" fill="white"/>
</g>
<defs>
<clipPath id="clip0_731_955">
<rect width="512" height="512" fill="white"/>
</clipPath>
</defs>
</svg>
