<svg width="512" height="448" viewBox="0 0 512 448" fill="none" xmlns="http://www.w3.org/2000/svg">
<path d="M149.1 32.8L138.7 64H64C28.7 64 0 92.7 0 128V384C0 419.3 28.7 448 64 448H448C483.3 448 512 419.3 512 384V128C512 92.7 483.3 64 448 64H373.3L362.9 32.8C356.4 13.2 338.1 0 317.4 0H194.6C173.9 0 155.6 13.2 149.1 32.8ZM256 160C281.461 160 305.879 170.114 323.882 188.118C341.886 206.121 352 230.539 352 256C352 281.461 341.886 305.879 323.882 323.882C305.879 341.886 281.461 352 256 352C230.539 352 206.121 341.886 188.118 323.882C170.114 305.879 160 281.461 160 256C160 230.539 170.114 206.121 188.118 188.118C206.121 170.114 230.539 160 256 160Z" fill="white"/>
</svg>
