<svg width="50" height="50" viewBox="0 0 50 50" fill="none" xmlns="http://www.w3.org/2000/svg">
<path d="M10.8243 3.43018H9.51514C9.18785 3.43018 8.92725 3.69078 8.92725 4.01807C8.92725 4.34535 9.18785 4.60596 9.51514 4.60596H10.8243C11.1516 4.60596 11.4122 4.34536 11.4122 4.01807C11.4122 3.69078 11.1454 3.43018 10.8243 3.43018Z" fill="white"/>
<path d="M14.4 3.43018H13.0909C12.7636 3.43018 12.503 3.69078 12.503 4.01807C12.503 4.34535 12.7636 4.60596 13.0909 4.60596H14.4C14.7273 4.60596 14.9879 4.34536 14.9879 4.01807C14.9879 3.69078 14.7273 3.43018 14.4 3.43018Z" fill="white"/>
<path d="M17.9821 3.43018H16.673C16.3457 3.43018 16.0851 3.69078 16.0851 4.01807C16.0851 4.34535 16.3457 4.60596 16.673 4.60596H17.9821C18.3094 4.60596 18.57 4.34536 18.57 4.01807C18.57 3.69078 18.3033 3.43018 17.9821 3.43018Z" fill="white"/>
<path d="M40.3814 3.43018H29.9029C29.5756 3.43018 29.315 3.69078 29.315 4.01807C29.315 4.34535 29.5756 4.60596 29.9029 4.60596H40.3814C40.7087 4.60596 40.9693 4.34536 40.9693 4.01807C40.9693 3.69078 40.7029 3.43018 40.3814 3.43018Z" fill="white"/>
<path d="M10.0064 10.3514H19.77C20.0973 10.3514 20.3579 10.0908 20.3579 9.76349C20.3579 9.43621 20.0973 9.1756 19.77 9.1756H10.0064C9.67914 9.1756 9.41853 9.4362 9.41853 9.76349C9.41853 10.0846 9.67913 10.3514 10.0064 10.3514Z" fill="white"/>
<path d="M10.0064 12.7578H15.7459C16.0731 12.7578 16.3337 12.4972 16.3337 12.1699C16.3337 11.8426 16.0731 11.582 15.7459 11.582H10.0064C9.67914 11.582 9.41853 11.8426 9.41853 12.1699C9.41853 12.4972 9.67913 12.7578 10.0064 12.7578Z" fill="white"/>
<path d="M36.7821 27.6785C36.1094 27.0058 35.079 26.9088 34.2914 27.3755L33.2489 26.3331C35.8611 22.436 35.3823 17.1267 32.0307 13.776C28.1518 9.89703 21.8429 9.89703 17.9643 13.776C14.0854 17.6549 14.0854 23.9638 17.9643 27.8424C19.8856 29.7637 22.4431 30.7453 25.0129 30.7453C26.9341 30.7453 28.8614 30.1878 30.5221 29.0665L31.5584 30.1027C31.3706 30.418 31.2673 30.7693 31.2673 31.1452C31.2673 31.6907 31.4794 32.2057 31.8672 32.5877L37.8734 38.5938C38.2735 38.9939 38.7947 39.1878 39.3159 39.1878C39.8371 39.1878 40.3583 38.9878 40.7584 38.5938L42.7827 36.5695C43.5764 35.7757 43.5764 34.4786 42.7827 33.6847L36.7821 27.6785ZM32.3458 29.224L31.4791 28.3574C31.6669 28.1939 31.855 28.024 32.0366 27.8423C32.2185 27.6604 32.3882 27.4788 32.5458 27.2849L33.4125 28.1515L32.3458 29.224ZM18.8001 27.0117C15.3819 23.5935 15.3759 18.0238 18.8001 14.606C20.5091 12.897 22.7576 12.0423 25.0063 12.0423C27.2549 12.0423 29.4971 12.897 31.2125 14.606C34.2792 17.6727 34.6307 22.5938 32.0306 26.0545C31.7881 26.388 31.5094 26.7091 31.2125 27.006C30.9095 27.309 30.5883 27.5819 30.2549 27.8302C26.782 30.4303 21.8671 30.0729 18.7999 27.0121L18.8001 27.0117ZM41.9579 35.7331L39.9336 37.7574C39.5944 38.0967 39.0489 38.0967 38.7093 37.7574L32.7031 31.7513C32.5396 31.5878 32.4487 31.3696 32.4487 31.1391C32.4487 30.9089 32.5396 30.6907 32.7031 30.5269L34.7274 28.5026C34.8971 28.333 35.1153 28.2482 35.3396 28.2482C35.5639 28.2482 35.7821 28.333 35.9518 28.5026L41.9579 34.5088C42.2913 34.8484 42.2914 35.4 41.9579 35.7331Z" fill="white"/>
<path d="M28.9029 15.9029L22.6908 17.3696C22.424 17.4302 22.2363 17.6665 22.2363 17.9394V22.3454C21.9877 22.2363 21.7151 22.1696 21.4241 22.1696C20.327 22.1696 19.4361 23.0605 19.4361 24.1576C19.4361 25.2547 20.327 26.1456 21.4241 26.1456C22.5211 26.1456 23.4121 25.2547 23.4121 24.1576V20.7879L28.4483 19.6001V21.0061C28.1997 20.897 27.9271 20.8303 27.6361 20.8303C26.5391 20.8303 25.6481 21.7213 25.6481 22.8183C25.6481 23.9154 26.5391 24.8063 27.6361 24.8063C28.7332 24.8063 29.6241 23.9154 29.6241 22.8183C29.6241 22.7879 29.618 22.7639 29.618 22.7335C29.618 22.7215 29.6241 22.7092 29.6241 22.6911V16.4726C29.6241 16.2907 29.5393 16.121 29.3998 16.012C29.2606 15.9029 29.0786 15.8604 28.9029 15.9029ZM21.4243 24.9636C20.9759 24.9636 20.6121 24.6 20.6121 24.1514C20.6121 23.703 20.9756 23.3391 21.4243 23.3391C21.8727 23.3391 22.2365 23.7027 22.2365 24.1514C22.2365 24.5997 21.8729 24.9636 21.4243 24.9636ZM23.4123 19.5816V18.4058L28.4486 17.218V18.3938L23.4123 19.5816ZM27.6366 23.624C27.1883 23.624 26.8244 23.2604 26.8244 22.8118C26.8244 22.3634 27.188 21.9996 27.6366 21.9996C28.085 21.9996 28.4489 22.3631 28.4489 22.8118C28.4486 23.2604 28.085 23.624 27.6366 23.624Z" fill="white"/>
<path d="M39.9936 0.812195H10.0057C7.98756 0.812195 6.35114 2.45448 6.35114 4.47291V6.62441V6.63055V6.63669V31.9095C6.35114 33.9277 7.99342 35.5703 10.0057 35.5703H31.7757C32.103 35.5703 32.3636 35.3097 32.3636 34.9824C32.3636 34.6551 32.103 34.3945 31.7757 34.3945L10.0057 34.3942C8.63599 34.3942 7.52692 33.279 7.52692 31.9093V7.21855H42.4784V31.4671C42.4784 31.7944 42.7389 32.055 43.0662 32.055C43.3935 32.055 43.6541 31.7944 43.6541 31.4671V4.47284C43.6541 2.45469 42.0116 0.812407 39.9934 0.812407L39.9936 0.812195ZM7.52071 6.04241V4.47262C7.52071 3.10291 8.63592 1.98769 9.99949 1.98769H39.9874C41.3571 1.98769 42.4723 3.10291 42.4723 4.47262V6.04241H7.52071Z" fill="white"/>
</svg>
