<svg width="800" height="800" viewBox="0 0 800 800" fill="none" xmlns="http://www.w3.org/2000/svg">
<path d="M626.653 574.484C634.259 582.712 638.386 593.564 638.168 604.767C637.95 615.97 633.405 626.654 625.484 634.58C617.564 642.506 606.883 647.058 595.68 647.284C584.478 647.509 573.622 643.39 565.39 635.79L400 470.4L234.611 635.79C230.646 640.077 225.857 643.521 220.53 645.913C215.203 648.305 209.447 649.596 203.609 649.71C197.77 649.823 191.969 648.756 186.553 646.573C181.136 644.39 176.217 641.136 172.089 637.005C167.961 632.874 164.71 627.953 162.531 622.535C160.351 617.117 159.288 611.315 159.406 605.477C159.524 599.638 160.819 593.884 163.215 588.558C165.61 583.232 169.057 578.445 173.347 574.484L338.737 409.095L173.347 243.789C169.057 239.828 165.61 235.041 163.215 229.716C160.819 224.39 159.524 218.636 159.406 212.797C159.288 206.959 160.351 201.157 162.531 195.739C164.71 190.321 167.961 185.399 172.089 181.269C176.217 177.138 181.136 173.884 186.553 171.701C191.969 169.517 197.77 168.451 203.609 168.564C209.447 168.678 215.203 169.969 220.53 172.361C225.857 174.753 230.646 178.196 234.611 182.484L400 347.832L565.39 182.442C573.622 174.841 584.478 170.722 595.68 170.948C606.883 171.173 617.564 175.726 625.484 183.652C633.405 191.578 637.95 202.261 638.168 213.464C638.386 224.667 634.259 235.52 626.653 243.747L461.263 409.095L626.653 574.484Z" fill="#CA1D1D"/>
</svg>
