<svg width="93" height="93" viewBox="0 0 93 93" fill="none" xmlns="http://www.w3.org/2000/svg">
<g filter="url(#filter0_d_823_421)">
<g clip-path="url(#clip0_823_421)">
<rect x="5" y="5" width="80" height="80" rx="0.689655" fill="url(#paint0_linear_823_421)"/>
<path fill-rule="evenodd" clip-rule="evenodd" d="M33.432 45.8109C33.432 45.8109 40.6918 54.0948 43.142 56.8729C43.5504 57.3811 44.231 57.6745 44.9116 57.6745C45.6375 57.6745 46.2728 57.3811 46.7265 56.8729C48.5868 54.7454 53.3964 49.3065 56.4365 45.8109C58.4329 43.5233 59.0681 40.4005 58.0245 37.5874C57.2986 35.6441 55.7558 34.0844 53.7594 33.3026C51.763 32.5208 49.4943 32.592 47.5432 33.4977L44.9116 34.7152L42.3253 33.4977C40.3742 32.592 38.1055 32.5208 36.1091 33.3026C34.1126 34.0844 32.5699 35.6441 31.844 37.5874C30.8004 40.4005 31.3902 43.5233 33.432 45.8109ZM45.1384 54.7532C45.0931 54.814 45.0023 54.8493 44.9116 54.8493C44.8662 54.8493 44.7754 54.814 44.7301 54.7532C43.2781 53.1456 35.4285 44.1972 35.4285 44.1972C34.0219 42.5896 33.6135 40.3949 34.3395 38.4175C34.7932 37.1538 35.7915 36.1394 37.1073 35.6307C38.4231 35.1225 39.8751 35.1687 41.1456 35.758C42.9151 36.5765 44.3671 37.2465 44.3671 37.2465C44.7301 37.4174 45.1384 37.4174 45.5014 37.2465L48.7229 35.758C49.948 35.1687 51.4454 35.1225 52.7612 35.6307C54.0317 36.1394 55.0752 37.1538 55.529 38.4175C56.255 40.3949 55.8466 42.5896 54.3946 44.1972C54.3946 44.1972 46.545 53.1456 45.1384 54.7532Z" fill="white"/>
<ellipse cx="39.4206" cy="40.134" rx="7.13223" ry="6.41901" fill="white"/>
<ellipse cx="50.8318" cy="40.134" rx="7.13223" ry="6.41901" fill="white"/>
<rect x="45.2275" y="36.5682" width="14.2645" height="14.2645" transform="rotate(45 45.2275 36.5682)" fill="white"/>
</g>
</g>
<defs>
<filter id="filter0_d_823_421" x="0.37931" y="0.37931" width="92" height="92" filterUnits="userSpaceOnUse" color-interpolation-filters="sRGB">
<feFlood flood-opacity="0" result="BackgroundImageFix"/>
<feColorMatrix in="SourceAlpha" type="matrix" values="0 0 0 0 0 0 0 0 0 0 0 0 0 0 0 0 0 0 127 0" result="hardAlpha"/>
<feOffset dx="1.37931" dy="1.37931"/>
<feGaussianBlur stdDeviation="3"/>
<feComposite in2="hardAlpha" operator="out"/>
<feColorMatrix type="matrix" values="0 0 0 0 0 0 0 0 0 0 0 0 0 0 0 0 0 0 0.4 0"/>
<feBlend mode="normal" in2="BackgroundImageFix" result="effect1_dropShadow_823_421"/>
<feBlend mode="normal" in="SourceGraphic" in2="effect1_dropShadow_823_421" result="shape"/>
</filter>
<linearGradient id="paint0_linear_823_421" x1="22.0667" y1="12.4667" x2="69" y2="79.6667" gradientUnits="userSpaceOnUse">
<stop stop-color="#3F12B8"/>
<stop offset="0.34375" stop-color="#5846A6"/>
<stop offset="0.520833" stop-color="#615B9A"/>
<stop offset="0.692708" stop-color="#6B6F96"/>
<stop offset="1" stop-color="#7A8F88"/>
</linearGradient>
<clipPath id="clip0_823_421">
<rect x="5" y="5" width="80" height="80" rx="2" fill="white"/>
</clipPath>
</defs>
</svg>
