<svg width="49" height="49" viewBox="0 0 49 49" fill="none" xmlns="http://www.w3.org/2000/svg">
<g clip-path="url(#clip0_1201_2205)">
<rect width="49" height="49" rx="4.08333" fill="url(#paint0_linear_1201_2205)"/>
<path fill-rule="evenodd" clip-rule="evenodd" d="M13.1192 25.167C13.1192 25.167 20.185 33.2295 22.5697 35.9334C22.9672 36.4281 23.6296 36.7136 24.292 36.7136C24.9986 36.7136 25.6168 36.4281 26.0584 35.9334C27.8691 33.8627 32.5501 28.5692 35.509 25.167C37.452 22.9405 38.0703 19.9011 37.0546 17.1632C36.348 15.2719 34.8465 13.7538 32.9034 12.9929C30.9603 12.232 28.7523 12.3013 26.8533 13.1827L24.292 14.3678L21.7748 13.1827C19.8759 12.3013 17.6678 12.232 15.7247 12.9929C13.7816 13.7538 12.2801 15.2719 11.5735 17.1632C10.5578 19.9011 11.1319 22.9405 13.1192 25.167ZM24.5128 33.8703C24.4686 33.9295 24.3803 33.9639 24.292 33.9639C24.2478 33.9639 24.1595 33.9295 24.1153 33.8703C22.7022 32.3057 15.0623 23.5964 15.0623 23.5964C13.6933 22.0318 13.2958 19.8956 14.0024 17.9711C14.444 16.7412 15.4156 15.7539 16.6963 15.2588C17.9769 14.7642 19.3901 14.8091 20.6266 15.3827C22.3489 16.1793 23.7621 16.8315 23.7621 16.8315C24.1153 16.9977 24.5128 16.9977 24.8661 16.8315L28.0015 15.3827C29.1939 14.8091 30.6512 14.7642 31.9319 15.2588C33.1684 15.7539 34.1841 16.7412 34.6257 17.9711C35.3323 19.8956 34.9349 22.0318 33.5217 23.5964C33.5217 23.5964 25.8818 32.3057 24.5128 33.8703Z" fill="white"/>
<ellipse cx="18.9473" cy="19.6407" rx="6.94167" ry="6.2475" fill="white"/>
<ellipse cx="30.0538" cy="19.6407" rx="6.94167" ry="6.2475" fill="white"/>
<rect x="24.5995" y="16.1701" width="13.8833" height="13.8833" transform="rotate(45 24.5995 16.1701)" fill="white"/>
</g>
<defs>
<linearGradient id="paint0_linear_1201_2205" x1="10.4533" y1="4.57333" x2="39.2" y2="45.7333" gradientUnits="userSpaceOnUse">
<stop stop-color="#A1A0A3"/>
<stop offset="1" stop-color="#BBE0DA"/>
</linearGradient>
<clipPath id="clip0_1201_2205">
<rect width="49" height="49" fill="white"/>
</clipPath>
</defs>
</svg>
