<svg width="158" height="58" viewBox="0 0 158 58" fill="none" xmlns="http://www.w3.org/2000/svg">
<g filter="url(#filter0_d_989_2320)">
<g filter="url(#filter1_d_989_2320)">
<path d="M5.48944 36.749L5.30327 33.5376C5.29255 33.3526 5.42771 33.1912 5.61174 33.1693L7.73761 32.9162L9.13958 32.6242L10.892 32.04L12.995 31.2222L14.3696 30.764C14.3878 30.7579 14.4054 30.7504 14.4224 30.7415L16.4999 29.645L18.4276 28.6519L20.0632 27.8926L22.6335 26.7827L25.0285 25.9649L27.5403 25.3807C28.1492 25.2804 28.8626 25.1806 29.468 25.147C29.9819 25.1185 30.5657 25.094 30.6762 25.0894C30.6887 25.0889 30.701 25.089 30.7135 25.0899L31.571 25.147L32.564 25.2639L33.9076 25.5559L35.0759 25.848L36.7699 26.3153L39.8659 27.25L42.8451 28.1846L45.4153 29.0609L48.1905 30.052C48.4263 30.1362 48.5003 30.4333 48.3315 30.6183L44.5759 34.7341C44.4825 34.8364 44.3376 34.8741 44.2061 34.8303L42.3193 34.2014L39.5154 33.2083L36.2442 32.04L33.6155 31.2222L31.2789 30.7549L29.0591 30.4628L27.5668 30.2332C27.5492 30.2305 27.5314 30.2292 27.5135 30.2292H24.3859L22.6335 30.4628L21.1731 30.7549L19.3622 31.2222L17.7266 31.6895L16.091 32.3321L14.7474 32.9162L13.287 33.5588L12.0019 34.2014L10.2495 34.9024L8.26335 35.8954L6.80297 36.7132L5.97205 37.0532C5.74945 37.1442 5.50336 36.9891 5.48944 36.749Z" fill="white"/>
<path d="M5.48944 36.749L5.30327 33.5376C5.29255 33.3526 5.42771 33.1912 5.61174 33.1693L7.73761 32.9162L9.13958 32.6242L10.892 32.04L12.995 31.2222L14.3696 30.764C14.3878 30.7579 14.4054 30.7504 14.4224 30.7415L16.4999 29.645L18.4276 28.6519L20.0632 27.8926L22.6335 26.7827L25.0285 25.9649L27.5403 25.3807C28.1492 25.2804 28.8626 25.1806 29.468 25.147C29.9819 25.1185 30.5657 25.094 30.6762 25.0894C30.6887 25.0889 30.701 25.089 30.7135 25.0899L31.571 25.147L32.564 25.2639L33.9076 25.5559L35.0759 25.848L36.7699 26.3153L39.8659 27.25L42.8451 28.1846L45.4153 29.0609L48.1905 30.052C48.4263 30.1362 48.5003 30.4333 48.3315 30.6183L44.5759 34.7341C44.4825 34.8364 44.3376 34.8741 44.2061 34.8303L42.3193 34.2014L39.5154 33.2083L36.2442 32.04L33.6155 31.2222L31.2789 30.7549L29.0591 30.4628L27.5668 30.2332C27.5492 30.2305 27.5314 30.2292 27.5135 30.2292H24.3859L22.6335 30.4628L21.1731 30.7549L19.3622 31.2222L17.7266 31.6895L16.091 32.3321L14.7474 32.9162L13.287 33.5588L12.0019 34.2014L10.2495 34.9024L8.26335 35.8954L6.80297 36.7132L5.97205 37.0532C5.74945 37.1442 5.50336 36.9891 5.48944 36.749Z" stroke="black" stroke-width="0.09375"/>
<path d="M5.48944 36.749L5.30327 33.5376C5.29255 33.3526 5.42771 33.1912 5.61174 33.1693L7.73761 32.9162L9.13958 32.6242L10.892 32.04L12.995 31.2222L14.3696 30.764C14.3878 30.7579 14.4054 30.7504 14.4224 30.7415L16.4999 29.645L18.4276 28.6519L20.0632 27.8926L22.6335 26.7827L25.0285 25.9649L27.5403 25.3807C28.1492 25.2804 28.8626 25.1806 29.468 25.147C29.9819 25.1185 30.5657 25.094 30.6762 25.0894C30.6887 25.0889 30.701 25.089 30.7135 25.0899L31.571 25.147L32.564 25.2639L33.9076 25.5559L35.0759 25.848L36.7699 26.3153L39.8659 27.25L42.8451 28.1846L45.4153 29.0609L48.1905 30.052C48.4263 30.1362 48.5003 30.4333 48.3315 30.6183L44.5759 34.7341C44.4825 34.8364 44.3376 34.8741 44.2061 34.8303L42.3193 34.2014L39.5154 33.2083L36.2442 32.04L33.6155 31.2222L31.2789 30.7549L29.0591 30.4628L27.5668 30.2332C27.5492 30.2305 27.5314 30.2292 27.5135 30.2292H24.3859L22.6335 30.4628L21.1731 30.7549L19.3622 31.2222L17.7266 31.6895L16.091 32.3321L14.7474 32.9162L13.287 33.5588L12.0019 34.2014L10.2495 34.9024L8.26335 35.8954L6.80297 36.7132L5.97205 37.0532C5.74945 37.1442 5.50336 36.9891 5.48944 36.749Z" stroke="black" stroke-opacity="0.2" stroke-width="0.09375"/>
<path d="M6.21891 40.1014L6.20376 40.1089C6.05493 40.1822 6.07392 40.2163 6.11613 40.3767L6.33574 41.2113L6.62783 42.2628L7.20105 43.7531C7.20832 43.772 7.21722 43.7903 7.22764 43.8076L7.91296 44.9498L8.54015 45.8621C8.55038 45.877 8.56175 45.8911 8.57416 45.9042L9.52894 46.9152C9.54201 46.929 9.55619 46.9418 9.57134 46.9533L10.7431 47.8461C10.7645 47.8624 10.7877 47.8762 10.8122 47.8871L12.4693 48.63C13.2293 48.9645 13.6933 49.1247 14.6307 49.331C15.9881 49.5625 16.7641 49.3351 17.9604 49.0973L18.9534 48.8637L20.1217 48.63L21.6989 48.1627L23.685 47.5201L25.2038 46.936L26.781 46.2934L28.2998 45.534L30.0523 44.5994L31.98 43.5479L33.674 42.5548L35.2512 41.5034L36.1457 40.907C36.3478 40.7723 36.3016 40.4632 36.069 40.3935L34.2582 39.6925L32.8562 39.1083L31.3958 38.5826L30.0523 38.1153L28.4751 37.648L26.4305 37.1806L23.8359 36.6617C23.8133 36.6572 23.7902 36.6549 23.7672 36.6549H20.5306H18.3108L16.5 36.8886L14.9228 37.1806L12.9951 37.648L11.301 38.1153L9.25651 38.8163L6.21891 40.1014Z" fill="white"/>
<path d="M6.21891 40.1014L6.20376 40.1089C6.05493 40.1822 6.07392 40.2163 6.11613 40.3767L6.33574 41.2113L6.62783 42.2628L7.20105 43.7531C7.20832 43.772 7.21722 43.7903 7.22764 43.8076L7.91296 44.9498L8.54015 45.8621C8.55038 45.877 8.56175 45.8911 8.57416 45.9042L9.52894 46.9152C9.54201 46.929 9.55619 46.9418 9.57134 46.9533L10.7431 47.8461C10.7645 47.8624 10.7877 47.8762 10.8122 47.8871L12.4693 48.63C13.2293 48.9645 13.6933 49.1247 14.6307 49.331C15.9881 49.5625 16.7641 49.3351 17.9604 49.0973L18.9534 48.8637L20.1217 48.63L21.6989 48.1627L23.685 47.5201L25.2038 46.936L26.781 46.2934L28.2998 45.534L30.0523 44.5994L31.98 43.5479L33.674 42.5548L35.2512 41.5034L36.1457 40.907C36.3478 40.7723 36.3016 40.4632 36.069 40.3935L34.2582 39.6925L32.8562 39.1083L31.3958 38.5826L30.0523 38.1153L28.4751 37.648L26.4305 37.1806L23.8359 36.6617C23.8133 36.6572 23.7902 36.6549 23.7672 36.6549H20.5306H18.3108L16.5 36.8886L14.9228 37.1806L12.9951 37.648L11.301 38.1153L9.25651 38.8163L6.21891 40.1014Z" stroke="black" stroke-width="0.09375"/>
<path d="M6.21891 40.1014L6.20376 40.1089C6.05493 40.1822 6.07392 40.2163 6.11613 40.3767L6.33574 41.2113L6.62783 42.2628L7.20105 43.7531C7.20832 43.772 7.21722 43.7903 7.22764 43.8076L7.91296 44.9498L8.54015 45.8621C8.55038 45.877 8.56175 45.8911 8.57416 45.9042L9.52894 46.9152C9.54201 46.929 9.55619 46.9418 9.57134 46.9533L10.7431 47.8461C10.7645 47.8624 10.7877 47.8762 10.8122 47.8871L12.4693 48.63C13.2293 48.9645 13.6933 49.1247 14.6307 49.331C15.9881 49.5625 16.7641 49.3351 17.9604 49.0973L18.9534 48.8637L20.1217 48.63L21.6989 48.1627L23.685 47.5201L25.2038 46.936L26.781 46.2934L28.2998 45.534L30.0523 44.5994L31.98 43.5479L33.674 42.5548L35.2512 41.5034L36.1457 40.907C36.3478 40.7723 36.3016 40.4632 36.069 40.3935L34.2582 39.6925L32.8562 39.1083L31.3958 38.5826L30.0523 38.1153L28.4751 37.648L26.4305 37.1806L23.8359 36.6617C23.8133 36.6572 23.7902 36.6549 23.7672 36.6549H20.5306H18.3108L16.5 36.8886L14.9228 37.1806L12.9951 37.648L11.301 38.1153L9.25651 38.8163L6.21891 40.1014Z" stroke="black" stroke-opacity="0.2" stroke-width="0.09375"/>
<path d="M4.99219 26.7827V20.5269C4.99219 20.2782 5.24392 20.1087 5.47436 20.2021L7.15355 20.8828L9.08124 21.467L11.9436 22.2848L14.6042 22.6897C14.6218 22.6923 14.6396 22.6937 14.6574 22.6937L17.0257 22.6907C17.6098 22.6907 18.9562 22.5547 19.1871 22.5184C19.9952 22.3917 20.4122 22.338 20.6082 22.3213C20.6351 22.3116 20.6673 22.3004 20.7058 22.2877L21.9326 21.8759L23.9187 20.9997L26.1384 19.7729L27.7157 18.8383L30.8701 16.6769L32.973 15.3918L35.1928 14.2819L36.8284 13.6394L38.4397 13.1215C38.4559 13.1162 38.4725 13.1122 38.4893 13.1094L39.866 12.88L41.0681 12.7082C41.0845 12.7059 41.101 12.7047 41.1176 12.7047H41.7937C41.8695 12.7047 41.9433 12.7293 42.004 12.7748L42.6115 13.2304L43.3709 13.873L44.364 14.6324L45.2402 15.3918L46.2917 16.3849L47.4015 17.67L48.1025 18.5462L48.7451 19.4809L49.154 20.2403L49.5629 20.9997L50.0568 22.2069C50.0767 22.2556 50.0711 22.311 50.0419 22.3548C50.0009 22.4164 49.9228 22.4414 49.8536 22.4151L45.8243 20.8828C45.1818 20.6686 43.5695 20.1468 42.261 19.7729C40.9525 19.3991 39.3792 19.2277 38.7561 19.1888C38.0746 19.1693 36.5714 19.1304 36.0106 19.1304C35.5148 19.1304 34.9064 19.1304 34.6778 19.1707C34.6311 19.179 34.5846 19.1896 34.5377 19.1972C34.2769 19.2394 33.4723 19.4291 33.2651 19.4809C33.0314 19.5393 31.3958 19.9092 30.8701 20.065L28.0661 21.1749L23.3345 23.4531L18.3108 25.7897C17.162 26.1791 14.8176 26.9814 14.6307 27.0748C14.4437 27.1683 12.333 27.3864 11.301 27.4837C10.9116 27.5421 9.73549 27.6239 8.1466 27.4837C6.74365 27.3599 5.66253 27.136 5.16062 27.0048C5.05999 26.9785 4.99219 26.8868 4.99219 26.7827Z" fill="white"/>
<path d="M4.99219 26.7827V20.5269C4.99219 20.2782 5.24392 20.1087 5.47436 20.2021L7.15355 20.8828L9.08124 21.467L11.9436 22.2848L14.6042 22.6897C14.6218 22.6923 14.6396 22.6937 14.6574 22.6937L17.0257 22.6907C17.6098 22.6907 18.9562 22.5547 19.1871 22.5184C22.1662 22.0511 19.8296 22.5769 20.7058 22.2877L21.9326 21.8759L23.9187 20.9997L26.1384 19.7729L27.7157 18.8383L30.8701 16.6769L32.973 15.3918L35.1928 14.2819L36.8284 13.6394L38.4397 13.1215C38.4559 13.1162 38.4725 13.1122 38.4893 13.1094L39.866 12.88L41.0681 12.7082C41.0845 12.7059 41.101 12.7047 41.1176 12.7047H41.7937C41.8695 12.7047 41.9433 12.7293 42.004 12.7748L42.6115 13.2304L43.3709 13.873L44.364 14.6324L45.2402 15.3918L46.2917 16.3849L47.4015 17.67L48.1025 18.5462L48.7451 19.4809L49.154 20.2403L49.5629 20.9997L50.0568 22.2069C50.0767 22.2556 50.0711 22.311 50.0419 22.3548V22.3548C50.0009 22.4164 49.9228 22.4414 49.8536 22.4151L45.8243 20.8828C45.1818 20.6686 43.5695 20.1468 42.261 19.7729C40.9525 19.3991 39.3792 19.2277 38.7561 19.1888C38.0746 19.1693 36.5714 19.1304 36.0106 19.1304C35.5148 19.1304 34.9064 19.1304 34.6778 19.1707C34.6311 19.179 34.5846 19.1896 34.5377 19.1972C34.2769 19.2394 33.4723 19.4291 33.2651 19.4809C33.0314 19.5393 31.3958 19.9092 30.8701 20.065L28.0661 21.1749L23.3345 23.4531L18.3108 25.7897C17.162 26.1791 14.8176 26.9814 14.6307 27.0748C14.4437 27.1683 12.333 27.3864 11.301 27.4837C10.9116 27.5421 9.73549 27.6239 8.1466 27.4837C6.74365 27.3599 5.66253 27.136 5.16062 27.0048C5.05999 26.9785 4.99219 26.8868 4.99219 26.7827V26.7827Z" stroke="black" stroke-width="0.09375"/>
<path d="M4.99219 26.7827V20.5269C4.99219 20.2782 5.24392 20.1087 5.47436 20.2021L7.15355 20.8828L9.08124 21.467L11.9436 22.2848L14.6042 22.6897C14.6218 22.6923 14.6396 22.6937 14.6574 22.6937L17.0257 22.6907C17.6098 22.6907 18.9562 22.5547 19.1871 22.5184C22.1662 22.0511 19.8296 22.5769 20.7058 22.2877L21.9326 21.8759L23.9187 20.9997L26.1384 19.7729L27.7157 18.8383L30.8701 16.6769L32.973 15.3918L35.1928 14.2819L36.8284 13.6394L38.4397 13.1215C38.4559 13.1162 38.4725 13.1122 38.4893 13.1094L39.866 12.88L41.0681 12.7082C41.0845 12.7059 41.101 12.7047 41.1176 12.7047H41.7937C41.8695 12.7047 41.9433 12.7293 42.004 12.7748L42.6115 13.2304L43.3709 13.873L44.364 14.6324L45.2402 15.3918L46.2917 16.3849L47.4015 17.67L48.1025 18.5462L48.7451 19.4809L49.154 20.2403L49.5629 20.9997L50.0568 22.2069C50.0767 22.2556 50.0711 22.311 50.0419 22.3548V22.3548C50.0009 22.4164 49.9228 22.4414 49.8536 22.4151L45.8243 20.8828C45.1818 20.6686 43.5695 20.1468 42.261 19.7729C40.9525 19.3991 39.3792 19.2277 38.7561 19.1888C38.0746 19.1693 36.5714 19.1304 36.0106 19.1304C35.5148 19.1304 34.9064 19.1304 34.6778 19.1707C34.6311 19.179 34.5846 19.1896 34.5377 19.1972C34.2769 19.2394 33.4723 19.4291 33.2651 19.4809C33.0314 19.5393 31.3958 19.9092 30.8701 20.065L28.0661 21.1749L23.3345 23.4531L18.3108 25.7897C17.162 26.1791 14.8176 26.9814 14.6307 27.0748C14.4437 27.1683 12.333 27.3864 11.301 27.4837C10.9116 27.5421 9.73549 27.6239 8.1466 27.4837C6.74365 27.3599 5.66253 27.136 5.16062 27.0048C5.05999 26.9785 4.99219 26.8868 4.99219 26.7827V26.7827Z" stroke="black" stroke-opacity="0.2" stroke-width="0.09375"/>
<path d="M15.2145 0.145386C13.6723 0.145386 12.2353 0.76848 11.7096 1.08003C10.5413 1.56937 9.74294 2.29645 9.4898 2.59882C8.9446 3.20244 7.71399 4.69008 7.1532 5.81165C6.59242 6.93322 6.17962 8.26508 6.04331 8.79082L5.56061 12.0088C5.53564 12.1753 5.631 12.3355 5.78986 12.391C9.32616 13.6283 16.1276 15.9819 17.0838 16.2095C18.0651 16.4432 20.3745 16.4627 21.4065 16.4432H25.0282C25.7292 16.4432 27.2285 15.898 27.8906 15.6254L30.8113 14.4571L38.1713 10.6408C38.4079 10.5181 38.4264 10.1867 38.2049 10.0384L31.6291 5.6364L26.2549 2.89089L23.107 1.57448C23.0642 1.55657 23.018 1.54753 22.9724 1.53876C22.5348 1.45461 20.7881 0.774237 19.3035 0.495876C17.4343 0.145386 17.1422 0.145386 15.2145 0.145386Z" fill="white"/>
<path d="M15.2145 0.145386C13.6723 0.145386 12.2353 0.76848 11.7096 1.08003C10.5413 1.56937 9.74294 2.29645 9.4898 2.59882C8.9446 3.20244 7.71399 4.69008 7.1532 5.81165C6.59242 6.93322 6.17962 8.26508 6.04331 8.79082L5.56061 12.0088C5.53564 12.1753 5.631 12.3355 5.78986 12.391C9.32616 13.6283 16.1276 15.9819 17.0838 16.2095C18.0651 16.4432 20.3745 16.4627 21.4065 16.4432H25.0282C25.7292 16.4432 27.2285 15.898 27.8906 15.6254L30.8113 14.4571L38.1713 10.6408C38.4079 10.5181 38.4264 10.1867 38.2049 10.0384L31.6291 5.6364L26.2549 2.89089L23.107 1.57448C23.0642 1.55657 23.018 1.54753 22.9724 1.53876C22.5348 1.45461 20.7881 0.774237 19.3035 0.495876C17.4343 0.145386 17.1422 0.145386 15.2145 0.145386Z" stroke="black" stroke-width="0.09375"/>
<path d="M15.2145 0.145386C13.6723 0.145386 12.2353 0.76848 11.7096 1.08003C10.5413 1.56937 9.74294 2.29645 9.4898 2.59882C8.9446 3.20244 7.71399 4.69008 7.1532 5.81165C6.59242 6.93322 6.17962 8.26508 6.04331 8.79082L5.56061 12.0088C5.53564 12.1753 5.631 12.3355 5.78986 12.391C9.32616 13.6283 16.1276 15.9819 17.0838 16.2095C18.0651 16.4432 20.3745 16.4627 21.4065 16.4432H25.0282C25.7292 16.4432 27.2285 15.898 27.8906 15.6254L30.8113 14.4571L38.1713 10.6408C38.4079 10.5181 38.4264 10.1867 38.2049 10.0384L31.6291 5.6364L26.2549 2.89089L23.107 1.57448C23.0642 1.55657 23.018 1.54753 22.9724 1.53876C22.5348 1.45461 20.7881 0.774237 19.3035 0.495876C17.4343 0.145386 17.1422 0.145386 15.2145 0.145386Z" stroke="black" stroke-opacity="0.2" stroke-width="0.09375"/>
</g>
<g filter="url(#filter2_d_989_2320)">
<path d="M73.1997 12.8508V16.9222H62.7149V23.3717H70.7496V27.371H62.7149V38H57.6706V12.8508H73.1997ZM81.8208 11.3375V38H76.7766V11.3375H81.8208ZM105.648 18.0392V38H100.568V35.4779C99.9196 36.3426 99.0669 37.0272 98.01 37.5316C96.9771 38.012 95.8482 38.2522 94.6231 38.2522C93.0618 38.2522 91.6807 37.9279 90.4796 37.2794C89.2786 36.6068 88.3298 35.634 87.6332 34.3609C86.9607 33.0638 86.6244 31.5265 86.6244 29.749V18.0392H91.6686V29.0284C91.6686 30.6138 92.065 31.8388 92.8576 32.7035C93.6503 33.5442 94.7312 33.9646 96.1004 33.9646C97.4935 33.9646 98.5865 33.5442 99.3791 32.7035C100.172 31.8388 100.568 30.6138 100.568 29.0284V18.0392H105.648ZM113.184 15.6612C112.295 15.6612 111.55 15.3849 110.95 14.8325C110.373 14.256 110.085 13.5474 110.085 12.7067C110.085 11.866 110.373 11.1694 110.95 10.6169C111.55 10.0404 112.295 9.7522 113.184 9.7522C114.072 9.7522 114.805 10.0404 115.381 10.6169C115.982 11.1694 116.282 11.866 116.282 12.7067C116.282 13.5474 115.982 14.256 115.381 14.8325C114.805 15.3849 114.072 15.6612 113.184 15.6612ZM115.67 18.0392V38H110.625V18.0392H115.67ZM125.698 21.1378C126.346 20.0809 127.187 19.2522 128.22 18.6517C129.277 18.0512 130.478 17.7509 131.823 17.7509V23.0474H130.49C128.904 23.0474 127.703 23.4197 126.887 24.1643C126.094 24.909 125.698 26.2061 125.698 28.0556V38H120.653V18.0392H125.698V21.1378ZM153.776 27.5872C153.776 28.3078 153.728 28.9564 153.632 29.5329H139.04C139.16 30.9741 139.664 32.103 140.553 32.9197C141.442 33.7364 142.534 34.1448 143.832 34.1448C145.705 34.1448 147.038 33.3401 147.831 31.7307H153.272C152.695 33.6523 151.59 35.2377 149.957 36.4867C148.323 37.7118 146.318 38.3243 143.94 38.3243C142.018 38.3243 140.289 37.9039 138.751 37.0632C137.238 36.1985 136.049 34.9855 135.184 33.4241C134.344 31.8628 133.923 30.0613 133.923 28.0196C133.923 25.9538 134.344 24.1403 135.184 22.579C136.025 21.0177 137.202 19.8167 138.715 18.976C140.229 18.1353 141.97 17.7149 143.94 17.7149C145.837 17.7149 147.531 18.1232 149.02 18.9399C150.533 19.7566 151.698 20.9216 152.515 22.4349C153.356 23.9241 153.776 25.6416 153.776 27.5872ZM148.552 26.146C148.528 24.8489 148.059 23.816 147.146 23.0474C146.234 22.2547 145.117 21.8584 143.796 21.8584C142.547 21.8584 141.49 22.2427 140.625 23.0114C139.784 23.756 139.268 24.8009 139.076 26.146H148.552Z" fill="white"/>
</g>
</g>
<defs>
<filter id="filter0_d_989_2320" x="4.57031" y="0" width="150.805" height="50.9062" filterUnits="userSpaceOnUse" color-interpolation-filters="sRGB">
<feFlood flood-opacity="0" result="BackgroundImageFix"/>
<feColorMatrix in="SourceAlpha" type="matrix" values="0 0 0 0 0 0 0 0 0 0 0 0 0 0 0 0 0 0 127 0" result="hardAlpha"/>
<feOffset dy="0.375"/>
<feGaussianBlur stdDeviation="0.1875"/>
<feComposite in2="hardAlpha" operator="out"/>
<feColorMatrix type="matrix" values="0 0 0 0 0 0 0 0 0 0 0 0 0 0 0 0 0 0 0.25 0"/>
<feBlend mode="normal" in2="BackgroundImageFix" result="effect1_dropShadow_989_2320"/>
<feBlend mode="normal" in="SourceGraphic" in2="effect1_dropShadow_989_2320" result="shape"/>
</filter>
<filter id="filter1_d_989_2320" x="0.941939" y="0" width="58.2177" height="58.163" filterUnits="userSpaceOnUse" color-interpolation-filters="sRGB">
<feFlood flood-opacity="0" result="BackgroundImageFix"/>
<feColorMatrix in="SourceAlpha" type="matrix" values="0 0 0 0 0 0 0 0 0 0 0 0 0 0 0 0 0 0 127 0" result="hardAlpha"/>
<feOffset dy="4.00337"/>
<feGaussianBlur stdDeviation="2.00169"/>
<feComposite in2="hardAlpha" operator="out"/>
<feColorMatrix type="matrix" values="0 0 0 0 0 0 0 0 0 0 0 0 0 0 0 0 0 0 0.25 0"/>
<feBlend mode="normal" in2="BackgroundImageFix" result="effect1_dropShadow_989_2320"/>
<feBlend mode="normal" in="SourceGraphic" in2="effect1_dropShadow_989_2320" result="shape"/>
</filter>
<filter id="filter2_d_989_2320" x="53.6675" y="9.7522" width="104.112" height="36.5788" filterUnits="userSpaceOnUse" color-interpolation-filters="sRGB">
<feFlood flood-opacity="0" result="BackgroundImageFix"/>
<feColorMatrix in="SourceAlpha" type="matrix" values="0 0 0 0 0 0 0 0 0 0 0 0 0 0 0 0 0 0 127 0" result="hardAlpha"/>
<feOffset dy="4.00337"/>
<feGaussianBlur stdDeviation="2.00169"/>
<feComposite in2="hardAlpha" operator="out"/>
<feColorMatrix type="matrix" values="0 0 0 0 0 0 0 0 0 0 0 0 0 0 0 0 0 0 0.25 0"/>
<feBlend mode="normal" in2="BackgroundImageFix" result="effect1_dropShadow_989_2320"/>
<feBlend mode="normal" in="SourceGraphic" in2="effect1_dropShadow_989_2320" result="shape"/>
</filter>
</defs>
</svg>
