<svg width="24" height="24" viewBox="0 0 24 24" fill="none" xmlns="http://www.w3.org/2000/svg">
<g clip-path="url(#clip0_406_562)">
<rect width="24" height="24" rx="2" fill="url(#paint0_linear_406_562)"/>
<g clip-path="url(#clip1_406_562)">
<path fill-rule="evenodd" clip-rule="evenodd" d="M6.42533 12.3265C6.42533 12.3265 9.88613 16.2755 11.0542 17.5999C11.2488 17.8422 11.5733 17.982 11.8977 17.982C12.2438 17.982 12.5466 17.8422 12.7629 17.5999C13.6498 16.5857 15.9425 13.9929 17.3917 12.3265C18.3435 11.236 18.6463 9.74733 18.1488 8.40631C17.8027 7.47994 17.0673 6.73642 16.1156 6.36373C15.1639 5.99105 14.0824 6.02498 13.1523 6.4567L11.8977 7.03713L10.6648 6.4567C9.73472 6.02498 8.65322 5.99105 7.7015 6.36373C6.74978 6.73642 6.01436 7.47994 5.66828 8.40631C5.17079 9.74733 5.45198 11.236 6.42533 12.3265ZM12.0059 16.5894C11.9842 16.6184 11.941 16.6352 11.8977 16.6352C11.8761 16.6352 11.8328 16.6184 11.8112 16.5894C11.119 15.823 7.37705 11.5573 7.37705 11.5573C6.70652 10.7909 6.51185 9.74466 6.85793 8.80204C7.07423 8.19961 7.55009 7.71606 8.17736 7.47357C8.80463 7.23128 9.49679 7.25329 10.1024 7.53425C10.946 7.92441 11.6382 8.24383 11.6382 8.24383C11.8112 8.32528 12.0059 8.32528 12.1789 8.24383L13.7146 7.53425C14.2987 7.25329 15.0124 7.23128 15.6397 7.47357C16.2454 7.71606 16.7428 8.19961 16.9591 8.80204C17.3052 9.74466 17.1106 10.7909 16.4184 11.5573C16.4184 11.5573 12.6764 15.823 12.0059 16.5894Z" fill="white"/>
<ellipse cx="9.28007" cy="9.62001" rx="3.4" ry="3.06" fill="white"/>
<ellipse cx="14.7201" cy="9.62004" rx="3.4" ry="3.06" fill="white"/>
<rect x="12.0483" y="7.92009" width="6.8" height="6.8" transform="rotate(45 12.0483 7.92009)" fill="white"/>
</g>
</g>
<defs>
<linearGradient id="paint0_linear_406_562" x1="5.12" y1="2.24" x2="19.2" y2="22.4" gradientUnits="userSpaceOnUse">
<stop stop-color="#4122F6"/>
<stop offset="1" stop-color="#BBE0DA"/>
</linearGradient>
<clipPath id="clip0_406_562">
<rect width="24" height="24" fill="white"/>
</clipPath>
<clipPath id="clip1_406_562">
<rect width="13.6" height="13.6" fill="white" transform="translate(5.20001 5.2)"/>
</clipPath>
</defs>
</svg>
