<svg width="50" height="50" viewBox="0 0 50 50" fill="none" xmlns="http://www.w3.org/2000/svg">
<g clip-path="url(#clip0_85_1381)">
<path d="M50 24.9998C50 38.8069 38.8071 49.9998 25 49.9998C11.1929 49.9998 0 38.8069 0 24.9998C0 11.1927 11.1929 -0.000189936 25 -0.000189936C38.8071 -0.000189936 50 11.1927 50 24.9998Z" fill="black"/>
<path fill-rule="evenodd" clip-rule="evenodd" d="M25 0C38.7987 0 50 11.2019 50 24.9998C50 38.7981 38.7987 50 25 50C11.2013 50 0 38.7981 0 24.9998C0 11.2019 11.2013 0 25 0ZM22.0779 15.006C22.0779 14.4501 21.5909 13.9984 21.0633 13.9984H16.8425C16.2744 13.9984 15.8279 14.4501 15.8279 15.006V34.871C15.8279 35.4274 16.2744 35.8791 16.8425 35.8791H21.0633C21.5909 35.8791 22.0779 35.4274 22.0779 34.871V15.006ZM34.5779 15.006C34.5779 14.4501 34.1315 13.9984 33.5633 13.9984H29.3425C28.7744 13.9984 28.3279 14.4501 28.3279 15.006V34.871C28.3279 35.4274 28.7744 35.8791 29.3425 35.8791H33.5633C34.1315 35.8791 34.5779 35.4274 34.5779 34.871V15.006Z" fill="white"/>
</g>
<defs>
<clipPath id="clip0_85_1381">
<rect width="50" height="50" fill="white"/>
</clipPath>
</defs>
</svg>
