<svg width="56" height="56" viewBox="0 0 56 56" fill="none" xmlns="http://www.w3.org/2000/svg">
<path fill-rule="evenodd" clip-rule="evenodd" d="M28 0C43.4545 0 56 12.5461 56 27.9998C56 43.4539 43.4545 56 28 56C12.5455 56 0 43.4539 0 27.9998C0 12.5461 12.5455 0 28 0ZM24.7273 16.8068C24.7273 16.1841 24.1818 15.6782 23.5909 15.6782H18.8636C18.2273 15.6782 17.7273 16.1841 17.7273 16.8068V39.0555C17.7273 39.6787 18.2273 40.1845 18.8636 40.1845H23.5909C24.1818 40.1845 24.7273 39.6787 24.7273 39.0555V16.8068ZM38.7273 16.8068C38.7273 16.1841 38.2273 15.6782 37.5909 15.6782H32.8636C32.2273 15.6782 31.7273 16.1841 31.7273 16.8068V39.0555C31.7273 39.6787 32.2273 40.1845 32.8636 40.1845H37.5909C38.2273 40.1845 38.7273 39.6787 38.7273 39.0555V16.8068Z" fill="#1ED760"/>
</svg>
