<svg width="81" height="81" viewBox="0 0 81 81" fill="none" xmlns="http://www.w3.org/2000/svg">
<rect width="81" height="81" fill="#363636"/>
<path d="M55.2441 26.3723C55.7188 26.7238 56 27.2862 56 27.878V32.0963V47.5634C56 50.153 53.4805 52.2504 50.375 52.2504C47.2695 52.2504 44.75 50.153 44.75 47.5634C44.75 44.9738 47.2695 42.8764 50.375 42.8764C51.0312 42.8764 51.6641 42.9701 52.25 43.1459V34.6155L37.25 39.1151V51.313C37.25 53.9026 34.7305 56 31.625 56C28.5195 56 26 53.9026 26 51.313C26 48.7234 28.5195 46.626 31.625 46.626C32.2812 46.626 32.9141 46.7197 33.5 46.8955V37.7207V33.5024C33.5 32.6763 34.0449 31.9439 34.8359 31.7037L53.5859 26.0793C54.1543 25.9094 54.7695 26.0149 55.2441 26.3723Z" fill="#5E5E5E"/>
</svg>
