<svg width="30" height="30" viewBox="0 0 30 30" fill="none" xmlns="http://www.w3.org/2000/svg">
<path d="M25.6996 16.2754C26.0047 16.0138 26.1573 15.883 26.2132 15.7274C26.2623 15.5908 26.2623 15.4414 26.2132 15.3048C26.1573 15.1492 26.0047 15.0184 25.6996 14.7569L15.1112 5.68108C14.5859 5.23083 14.3232 5.00571 14.1009 5.00019C13.9076 4.9954 13.723 5.0803 13.6009 5.23015C13.4604 5.40257 13.4604 5.74849 13.4604 6.44033V11.8094C10.792 12.2762 8.34988 13.6283 6.53502 15.6584C4.55641 17.8718 3.46193 20.736 3.46038 23.7048V24.4698C4.77206 22.8897 6.40976 21.6118 8.26133 20.7235C9.89375 19.9404 11.6584 19.4765 13.4604 19.3543V24.5919C13.4604 25.2837 13.4604 25.6297 13.6009 25.8021C13.723 25.9519 13.9076 26.0368 14.1009 26.032C14.3232 26.0265 14.5859 25.8014 15.1112 25.3511L25.6996 16.2754Z" stroke="white" stroke-width="2.5" stroke-linecap="round" stroke-linejoin="round"/>
</svg>
