<svg width="20" height="22" viewBox="0 0 20 22" fill="none" xmlns="http://www.w3.org/2000/svg">
<path d="M7.61161 2.21719L6.76339 3.4375H13.2366L12.3884 2.21719C12.3214 2.12266 12.2098 2.0625 12.0893 2.0625H7.90625C7.78571 2.0625 7.67411 2.11836 7.60714 2.21719H7.61161ZM14.1741 1.07422L15.8125 3.4375H16.4286H18.5714H18.9286C19.5223 3.4375 20 3.89727 20 4.46875C20 5.04023 19.5223 5.5 18.9286 5.5H18.5714V18.5625C18.5714 20.4617 16.9732 22 15 22H5C3.02679 22 1.42857 20.4617 1.42857 18.5625V5.5H1.07143C0.477679 5.5 0 5.04023 0 4.46875C0 3.89727 0.477679 3.4375 1.07143 3.4375H1.42857H3.57143H4.1875L5.82589 1.06992C6.29018 0.403906 7.07143 0 7.90625 0H12.0893C12.9241 0 13.7054 0.403906 14.1696 1.06992L14.1741 1.07422ZM3.57143 5.5V18.5625C3.57143 19.323 4.20982 19.9375 5 19.9375H15C15.7902 19.9375 16.4286 19.323 16.4286 18.5625V5.5H3.57143ZM7.14286 8.25V17.1875C7.14286 17.5656 6.82143 17.875 6.42857 17.875C6.03571 17.875 5.71429 17.5656 5.71429 17.1875V8.25C5.71429 7.87187 6.03571 7.5625 6.42857 7.5625C6.82143 7.5625 7.14286 7.87187 7.14286 8.25ZM10.7143 8.25V17.1875C10.7143 17.5656 10.3929 17.875 10 17.875C9.60714 17.875 9.28571 17.5656 9.28571 17.1875V8.25C9.28571 7.87187 9.60714 7.5625 10 7.5625C10.3929 7.5625 10.7143 7.87187 10.7143 8.25ZM14.2857 8.25V17.1875C14.2857 17.5656 13.9643 17.875 13.5714 17.875C13.1786 17.875 12.8571 17.5656 12.8571 17.1875V8.25C12.8571 7.87187 13.1786 7.5625 13.5714 7.5625C13.9643 7.5625 14.2857 7.87187 14.2857 8.25Z" fill="white"/>
</svg>
