<svg width="20" height="20" viewBox="0 0 20 20" fill="none" xmlns="http://www.w3.org/2000/svg">
<g clip-path="url(#clip0_1170_2222)">
<path d="M8.48928 3.37373L7.81071 4.34998H12.9893L12.3107 3.37373C12.2571 3.2981 12.1679 3.24998 12.0714 3.24998H8.72499C8.62857 3.24998 8.53928 3.29466 8.48571 3.37373H8.48928ZM13.7393 2.45935L15.05 4.34998H15.5429H17.2571H17.5429C18.0179 4.34998 18.4 4.71779 18.4 5.17498C18.4 5.63216 18.0179 5.99998 17.5429 5.99998H17.2571V16.45C17.2571 17.9694 15.9786 19.2 14.4 19.2H6.39999C4.82142 19.2 3.54285 17.9694 3.54285 16.45V5.99998H3.25714C2.78214 5.99998 2.39999 5.63216 2.39999 5.17498C2.39999 4.71779 2.78214 4.34998 3.25714 4.34998H3.54285H5.25714H5.74999L7.06071 2.45591C7.43214 1.9231 8.05714 1.59998 8.72499 1.59998H12.0714C12.7393 1.59998 13.3643 1.9231 13.7357 2.45591L13.7393 2.45935ZM5.25714 5.99998V16.45C5.25714 17.0584 5.76785 17.55 6.39999 17.55H14.4C15.0321 17.55 15.5429 17.0584 15.5429 16.45V5.99998H5.25714ZM8.11428 8.19998V15.35C8.11428 15.6525 7.85714 15.9 7.54285 15.9C7.22857 15.9 6.97142 15.6525 6.97142 15.35V8.19998C6.97142 7.89748 7.22857 7.64998 7.54285 7.64998C7.85714 7.64998 8.11428 7.89748 8.11428 8.19998ZM10.9714 8.19998V15.35C10.9714 15.6525 10.7143 15.9 10.4 15.9C10.0857 15.9 9.82857 15.6525 9.82857 15.35V8.19998C9.82857 7.89748 10.0857 7.64998 10.4 7.64998C10.7143 7.64998 10.9714 7.89748 10.9714 8.19998ZM13.8286 8.19998V15.35C13.8286 15.6525 13.5714 15.9 13.2571 15.9C12.9429 15.9 12.6857 15.6525 12.6857 15.35V8.19998C12.6857 7.89748 12.9429 7.64998 13.2571 7.64998C13.5714 7.64998 13.8286 7.89748 13.8286 8.19998Z" fill="white"/>
</g>
<defs>
<clipPath id="clip0_1170_2222">
<rect width="16" height="17.6" fill="white" transform="translate(2.39999 1.59998)"/>
</clipPath>
</defs>
</svg>
