<svg width="60" height="60" viewBox="0 0 60 60" fill="none" xmlns="http://www.w3.org/2000/svg">
<path fill-rule="evenodd" clip-rule="evenodd" d="M5.40439 31.4404C5.40439 31.4404 20.6726 48.8625 25.8257 54.7053C26.6845 55.7742 28.1159 56.3912 29.5473 56.3912C31.0741 56.3912 32.4101 55.7742 33.3644 54.7053C37.2768 50.2309 47.3921 38.7922 53.7856 31.4404C57.9844 26.6294 59.3204 20.0616 57.1256 14.1454C55.5987 10.0585 52.3542 6.77823 48.1555 5.13402C43.9567 3.48981 39.1854 3.63953 35.082 5.54417L29.5473 8.10487L24.108 5.54417C20.0046 3.63953 15.2333 3.48981 11.0346 5.13402C6.83579 6.77823 3.59129 10.0585 2.06447 14.1454C-0.130344 20.0616 1.1102 26.6294 5.40439 31.4404ZM30.0244 50.2472C29.929 50.3752 29.7381 50.4495 29.5473 50.4495C29.4519 50.4495 29.261 50.3752 29.1656 50.2472C26.1119 46.8662 9.60316 28.0468 9.60316 28.0468C6.64494 24.6658 5.7861 20.0499 7.31292 15.8913C8.26719 13.2335 10.3666 11.1002 13.1339 10.0303C15.9013 8.96142 18.955 9.05853 21.6269 10.298C25.3485 12.0194 28.4022 13.4286 28.4022 13.4286C29.1656 13.7879 30.0244 13.7879 30.7878 13.4286L37.5631 10.298C40.1396 9.05853 43.2887 8.96142 46.0561 10.0303C48.728 11.1002 50.9228 13.2335 51.8771 15.8913C53.4039 20.0499 52.5451 24.6658 49.4914 28.0468C49.4914 28.0468 32.9827 46.8662 30.0244 50.2472Z" fill="#8540A7"/>
<ellipse cx="18" cy="20" rx="14" ry="13" fill="#8540A7"/>
<ellipse cx="41.5" cy="20.5" rx="14.5" ry="12.5" fill="#8540A7"/>
<rect x="29.584" y="15.1999" width="26" height="26" transform="rotate(45 29.584 15.1999)" fill="#8540A7"/>
</svg>
