<svg width="24" height="26" viewBox="0 0 24 26" fill="none" xmlns="http://www.w3.org/2000/svg">
<path d="M13.338 0.902536C12.9707 0.544426 12.4941 0.346272 12 0.346272C11.5059 0.346272 11.0293 0.544426 10.662 0.902536L0 11.2982V22.5649C0 23.4843 0.337142 24.366 0.937258 25.0162C1.53737 25.6663 2.35131 26.0315 3.2 26.0315H7V18.4168C7 16.9802 7.52678 15.6024 8.46447 14.5866C9.40215 13.5708 10.6739 13.0001 12 13.0001C13.3261 13.0001 14.5979 13.5708 15.5355 14.5866C16.4732 15.6024 17 16.9802 17 18.4168V26.0283H20.8C21.6487 26.0283 22.4626 25.663 23.0627 25.0129C23.6629 24.3628 24 23.481 24 22.5616V11.295L13.338 0.902536Z" fill="white"/>
</svg>
