<svg width="535" height="535" viewBox="0 0 535 535" fill="none" xmlns="http://www.w3.org/2000/svg">
<g clip-path="url(#clip0_458_643)">
<path d="M5.22214 391.99L3.23635 357.735C3.12195 355.762 4.56372 354.04 6.52671 353.807L29.2027 351.107L44.1569 347.992L62.8498 341.761L85.2812 333.037L99.9442 328.15C100.138 328.085 100.326 328.005 100.507 327.909L122.667 316.214L143.229 305.621L160.676 297.521L188.092 285.682L213.639 276.959L240.432 270.728C246.926 269.659 254.536 268.594 260.994 268.236C266.475 267.931 272.702 267.67 273.881 267.621C274.014 267.615 274.146 267.617 274.279 267.626L283.425 268.236L294.018 269.482L308.349 272.597L320.811 275.713L338.881 280.698L371.905 290.667L403.682 300.637L431.099 309.983L460.7 320.555C463.215 321.453 464.004 324.623 462.204 326.596L422.144 370.497C421.148 371.589 419.602 371.991 418.2 371.524L398.075 364.815L368.166 354.223L333.273 341.761L305.233 333.037L280.31 328.053L256.632 324.937L240.714 322.488C240.526 322.459 240.336 322.445 240.146 322.445H206.785L188.092 324.937L172.514 328.053L153.198 333.037L135.752 338.022L118.305 344.876L103.974 351.107L88.3966 357.961L74.6886 364.815L55.9957 372.292L34.8105 382.885L19.2332 391.608L10.37 395.234C7.99557 396.206 5.37061 394.551 5.22214 391.99Z" fill="white"/>
<path d="M5.22214 391.99L3.23635 357.735C3.12195 355.762 4.56372 354.04 6.52671 353.807L29.2027 351.107L44.1569 347.992L62.8498 341.761L85.2812 333.037L99.9442 328.15C100.138 328.085 100.326 328.005 100.507 327.909L122.667 316.214L143.229 305.621L160.676 297.521L188.092 285.682L213.639 276.959L240.432 270.728C246.926 269.659 254.536 268.594 260.994 268.236C266.475 267.931 272.702 267.67 273.881 267.621C274.014 267.615 274.146 267.617 274.279 267.626L283.425 268.236L294.018 269.482L308.349 272.597L320.811 275.713L338.881 280.698L371.905 290.667L403.682 300.637L431.099 309.983L460.7 320.555C463.215 321.453 464.004 324.623 462.204 326.596L422.144 370.497C421.148 371.589 419.602 371.991 418.2 371.524L398.075 364.815L368.166 354.223L333.273 341.761L305.233 333.037L280.31 328.053L256.632 324.937L240.714 322.488C240.526 322.459 240.336 322.445 240.146 322.445H206.785L188.092 324.937L172.514 328.053L153.198 333.037L135.752 338.022L118.305 344.876L103.974 351.107L88.3966 357.961L74.6886 364.815L55.9957 372.292L34.8105 382.885L19.2332 391.608L10.37 395.234C7.99557 396.206 5.37061 394.551 5.22214 391.99Z" stroke="black"/>
<path d="M5.22214 391.99L3.23635 357.735C3.12195 355.762 4.56372 354.04 6.52671 353.807L29.2027 351.107L44.1569 347.992L62.8498 341.761L85.2812 333.037L99.9442 328.15C100.138 328.085 100.326 328.005 100.507 327.909L122.667 316.214L143.229 305.621L160.676 297.521L188.092 285.682L213.639 276.959L240.432 270.728C246.926 269.659 254.536 268.594 260.994 268.236C266.475 267.931 272.702 267.67 273.881 267.621C274.014 267.615 274.146 267.617 274.279 267.626L283.425 268.236L294.018 269.482L308.349 272.597L320.811 275.713L338.881 280.698L371.905 290.667L403.682 300.637L431.099 309.983L460.7 320.555C463.215 321.453 464.004 324.623 462.204 326.596L422.144 370.497C421.148 371.589 419.602 371.991 418.2 371.524L398.075 364.815L368.166 354.223L333.273 341.761L305.233 333.037L280.31 328.053L256.632 324.937L240.714 322.488C240.526 322.459 240.336 322.445 240.146 322.445H206.785L188.092 324.937L172.514 328.053L153.198 333.037L135.752 338.022L118.305 344.876L103.974 351.107L88.3966 357.961L74.6886 364.815L55.9957 372.292L34.8105 382.885L19.2332 391.608L10.37 395.234C7.99557 396.206 5.37061 394.551 5.22214 391.99Z" stroke="black" stroke-opacity="0.2"/>
<path d="M13.0023 427.748C12.947 427.776 12.8932 427.802 12.8407 427.828C11.2531 428.61 11.4557 428.974 11.906 430.685L14.2485 439.587L17.364 450.802L23.4784 466.7C23.556 466.901 23.6509 467.096 23.762 467.281L31.0721 479.465L37.7622 489.196C37.8713 489.354 37.9926 489.505 38.1249 489.645L48.3092 500.428C48.4487 500.576 48.5999 500.712 48.7615 500.835L61.2608 510.358C61.4887 510.532 61.7358 510.679 61.9972 510.796L79.6735 518.72C87.78 522.288 92.7294 523.996 102.728 526.197C117.207 528.666 125.484 526.24 138.244 523.704L148.837 521.212L161.299 518.72L178.122 513.735L199.308 506.881L215.508 500.65L232.332 493.796L248.532 485.696L267.225 475.726L287.787 464.51L305.857 453.918L322.68 442.702L332.222 436.341C334.377 434.905 333.884 431.608 331.404 430.863L312.088 423.386L297.133 417.155L281.556 411.547L267.225 406.563L250.401 401.578L228.593 396.593L200.917 391.058C200.675 391.01 200.43 390.985 200.184 390.985H165.661H141.983L122.667 393.478L105.843 396.593L85.2813 401.578L67.2116 406.563L45.4033 414.04L13.0023 427.748Z" fill="white"/>
<path d="M13.0023 427.748C12.947 427.776 12.8932 427.802 12.8407 427.828C11.2531 428.61 11.4557 428.974 11.906 430.685L14.2485 439.587L17.364 450.802L23.4784 466.7C23.556 466.901 23.6509 467.096 23.762 467.281L31.0721 479.465L37.7622 489.196C37.8713 489.354 37.9926 489.505 38.1249 489.645L48.3092 500.428C48.4487 500.576 48.5999 500.712 48.7615 500.835L61.2608 510.358C61.4887 510.532 61.7358 510.679 61.9972 510.796L79.6735 518.72C87.78 522.288 92.7294 523.996 102.728 526.197C117.207 528.666 125.484 526.24 138.244 523.704L148.837 521.212L161.299 518.72L178.122 513.735L199.308 506.881L215.508 500.65L232.332 493.796L248.532 485.696L267.225 475.726L287.787 464.51L305.857 453.918L322.68 442.702L332.222 436.341C334.377 434.905 333.884 431.608 331.404 430.863L312.088 423.386L297.133 417.155L281.556 411.547L267.225 406.563L250.401 401.578L228.593 396.593L200.917 391.058C200.675 391.01 200.43 390.985 200.184 390.985H165.661H141.983L122.667 393.478L105.843 396.593L85.2813 401.578L67.2116 406.563L45.4033 414.04L13.0023 427.748Z" stroke="black"/>
<path d="M13.0023 427.748C12.947 427.776 12.8932 427.802 12.8407 427.828C11.2531 428.61 11.4557 428.974 11.906 430.685L14.2485 439.587L17.364 450.802L23.4784 466.7C23.556 466.901 23.6509 467.096 23.762 467.281L31.0721 479.465L37.7622 489.196C37.8713 489.354 37.9926 489.505 38.1249 489.645L48.3092 500.428C48.4487 500.576 48.5999 500.712 48.7615 500.835L61.2608 510.358C61.4887 510.532 61.7358 510.679 61.9972 510.796L79.6735 518.72C87.78 522.288 92.7294 523.996 102.728 526.197C117.207 528.666 125.484 526.24 138.244 523.704L148.837 521.212L161.299 518.72L178.122 513.735L199.308 506.881L215.508 500.65L232.332 493.796L248.532 485.696L267.225 475.726L287.787 464.51L305.857 453.918L322.68 442.702L332.222 436.341C334.377 434.905 333.884 431.608 331.404 430.863L312.088 423.386L297.133 417.155L281.556 411.547L267.225 406.563L250.401 401.578L228.593 396.593L200.917 391.058C200.675 391.01 200.43 390.985 200.184 390.985H165.661H141.983L122.667 393.478L105.843 396.593L85.2813 401.578L67.2116 406.563L45.4033 414.04L13.0023 427.748Z" stroke="black" stroke-opacity="0.2"/>
<path d="M-0.0827637 285.682V218.953C-0.0827637 216.301 2.60237 214.492 5.0604 215.488L22.9717 222.75L43.5338 228.981L74.0655 237.704L102.446 242.023C102.634 242.051 102.823 242.066 103.013 242.065L128.275 242.034C134.506 242.034 148.867 240.583 151.329 240.196C159.949 238.844 164.397 238.272 166.488 238.093C166.775 237.99 167.119 237.871 167.53 237.736L180.615 233.342L201.8 223.996L225.477 210.911L242.301 200.942L275.948 177.887L298.379 164.179L322.057 152.34L339.504 145.486L356.69 139.962C356.863 139.906 357.04 139.863 357.22 139.833L371.905 137.386L384.727 135.554C384.902 135.529 385.078 135.517 385.255 135.517H392.467C393.276 135.517 394.063 135.779 394.71 136.264L401.19 141.124L409.29 147.978L419.883 156.079L429.229 164.179L440.445 174.772L452.284 188.48L459.761 197.826L466.615 207.796L470.977 215.896L475.338 223.996L480.606 236.873C480.819 237.393 480.759 237.984 480.448 238.451C480.01 239.108 479.177 239.374 478.439 239.094L435.46 222.75C428.606 220.465 411.409 214.899 397.451 210.911C383.494 206.923 366.712 205.095 360.066 204.68C352.796 204.472 336.762 204.057 330.78 204.057C325.492 204.057 319.002 204.057 316.564 204.488C316.066 204.576 315.57 204.688 315.07 204.769C312.287 205.22 303.705 207.243 301.495 207.796C299.003 208.419 281.556 212.365 275.948 214.026L246.039 225.865L195.569 250.166L141.983 275.09C129.729 279.244 104.722 287.801 102.728 288.798C100.734 289.795 78.2194 292.121 67.2114 293.159C63.0575 293.783 50.5125 294.655 33.5643 293.159C18.5995 291.839 7.06758 289.45 1.71389 288.051C0.64045 287.77 -0.0827637 286.792 -0.0827637 285.682Z" fill="white"/>
<path d="M-0.0827637 285.682V218.953C-0.0827637 216.301 2.60237 214.492 5.0604 215.488L22.9717 222.75L43.5338 228.981L74.0655 237.704L102.446 242.023C102.634 242.051 102.823 242.066 103.013 242.065L128.275 242.034C134.506 242.034 148.867 240.583 151.329 240.196C183.107 235.212 158.183 240.82 167.53 237.736L180.615 233.342L201.8 223.996L225.477 210.911L242.301 200.942L275.948 177.887L298.379 164.179L322.057 152.34L339.504 145.486L356.69 139.962C356.863 139.906 357.04 139.863 357.22 139.833L371.905 137.386L384.727 135.554C384.902 135.529 385.078 135.517 385.255 135.517H392.467C393.276 135.517 394.063 135.779 394.71 136.264L401.19 141.124L409.29 147.978L419.883 156.079L429.229 164.179L440.445 174.772L452.284 188.48L459.761 197.826L466.615 207.796L470.977 215.896L475.338 223.996L480.606 236.873C480.819 237.393 480.759 237.984 480.448 238.451V238.451C480.01 239.108 479.177 239.374 478.439 239.094L435.46 222.75C428.606 220.465 411.409 214.899 397.451 210.911C383.494 206.923 366.712 205.095 360.066 204.68C352.796 204.472 336.762 204.057 330.78 204.057C325.492 204.057 319.002 204.057 316.564 204.488C316.066 204.576 315.57 204.688 315.07 204.769C312.287 205.22 303.705 207.243 301.495 207.796C299.003 208.419 281.556 212.365 275.948 214.026L246.039 225.865L195.569 250.166L141.983 275.09C129.729 279.244 104.722 287.801 102.728 288.798C100.734 289.795 78.2194 292.121 67.2114 293.159C63.0575 293.783 50.5125 294.655 33.5643 293.159C18.5995 291.839 7.06758 289.45 1.71389 288.051C0.64045 287.77 -0.0827637 286.792 -0.0827637 285.682V285.682Z" stroke="black"/>
<path d="M-0.0827637 285.682V218.953C-0.0827637 216.301 2.60237 214.492 5.0604 215.488L22.9717 222.75L43.5338 228.981L74.0655 237.704L102.446 242.023C102.634 242.051 102.823 242.066 103.013 242.065L128.275 242.034C134.506 242.034 148.867 240.583 151.329 240.196C183.107 235.212 158.183 240.82 167.53 237.736L180.615 233.342L201.8 223.996L225.477 210.911L242.301 200.942L275.948 177.887L298.379 164.179L322.057 152.34L339.504 145.486L356.69 139.962C356.863 139.906 357.04 139.863 357.22 139.833L371.905 137.386L384.727 135.554C384.902 135.529 385.078 135.517 385.255 135.517H392.467C393.276 135.517 394.063 135.779 394.71 136.264L401.19 141.124L409.29 147.978L419.883 156.079L429.229 164.179L440.445 174.772L452.284 188.48L459.761 197.826L466.615 207.796L470.977 215.896L475.338 223.996L480.606 236.873C480.819 237.393 480.759 237.984 480.448 238.451V238.451C480.01 239.108 479.177 239.374 478.439 239.094L435.46 222.75C428.606 220.465 411.409 214.899 397.451 210.911C383.494 206.923 366.712 205.095 360.066 204.68C352.796 204.472 336.762 204.057 330.78 204.057C325.492 204.057 319.002 204.057 316.564 204.488C316.066 204.576 315.57 204.688 315.07 204.769C312.287 205.22 303.705 207.243 301.495 207.796C299.003 208.419 281.556 212.365 275.948 214.026L246.039 225.865L195.569 250.166L141.983 275.09C129.729 279.244 104.722 287.801 102.728 288.798C100.734 289.795 78.2194 292.121 67.2114 293.159C63.0575 293.783 50.5125 294.655 33.5643 293.159C18.5995 291.839 7.06758 289.45 1.71389 288.051C0.64045 287.77 -0.0827637 286.792 -0.0827637 285.682V285.682Z" stroke="black" stroke-opacity="0.2"/>
<path d="M108.959 1.55127C92.5091 1.55127 77.181 8.19761 71.5731 11.5208C59.1113 16.7405 50.5956 24.496 47.8956 27.7212C42.08 34.1599 28.9535 50.028 22.9718 61.9914C16.9901 73.9548 12.5869 88.1614 11.133 93.7692L5.98415 128.095C5.71784 129.87 6.73499 131.579 8.42953 132.172C46.15 145.369 118.698 170.474 128.898 172.902C139.366 175.395 163.999 175.602 175.007 175.395H213.639C221.116 175.395 237.109 169.579 244.17 166.671L275.325 154.209L353.831 113.502C356.355 112.194 356.553 108.658 354.19 107.077L284.048 60.1221L226.724 30.8367L193.146 16.795C192.689 16.6039 192.196 16.5075 191.71 16.414C187.043 15.5163 168.411 8.25901 152.575 5.28984C132.636 1.55127 129.521 1.55127 108.959 1.55127H108.959Z" fill="white"/>
<path d="M108.959 1.55127C92.5091 1.55127 77.181 8.19761 71.5731 11.5208C59.1113 16.7405 50.5956 24.496 47.8956 27.7212C42.08 34.1599 28.9535 50.028 22.9718 61.9914C16.9901 73.9548 12.5869 88.1614 11.133 93.7692L5.98415 128.095C5.71784 129.87 6.73499 131.579 8.42953 132.172C46.15 145.369 118.698 170.474 128.898 172.902C139.366 175.395 163.999 175.602 175.007 175.395H213.639C221.116 175.395 237.109 169.579 244.17 166.671L275.325 154.209L353.831 113.502C356.355 112.194 356.553 108.658 354.19 107.077L284.048 60.1221L226.724 30.8367L193.146 16.795C192.689 16.6039 192.196 16.5075 191.71 16.414C187.043 15.5163 168.411 8.25901 152.575 5.28984C132.636 1.55127 129.521 1.55127 108.959 1.55127H108.959Z" stroke="black"/>
<path d="M108.959 1.55127C92.5091 1.55127 77.181 8.19761 71.5731 11.5208C59.1113 16.7405 50.5956 24.496 47.8956 27.7212C42.08 34.1599 28.9535 50.028 22.9718 61.9914C16.9901 73.9548 12.5869 88.1614 11.133 93.7692L5.98415 128.095C5.71784 129.87 6.73499 131.579 8.42953 132.172C46.15 145.369 118.698 170.474 128.898 172.902C139.366 175.395 163.999 175.602 175.007 175.395H213.639C221.116 175.395 237.109 169.579 244.17 166.671L275.325 154.209L353.831 113.502C356.355 112.194 356.553 108.658 354.19 107.077L284.048 60.1221L226.724 30.8367L193.146 16.795C192.689 16.6039 192.196 16.5075 191.71 16.414C187.043 15.5163 168.411 8.25901 152.575 5.28984C132.636 1.55127 129.521 1.55127 108.959 1.55127H108.959Z" stroke="black" stroke-opacity="0.2"/>
</g>
<defs>
<clipPath id="clip0_458_643">
<rect width="535" height="535" fill="white"/>
</clipPath>
</defs>
</svg>
